<svg width="10" height="8" viewBox="0 0 10 8" fill="none" xmlns="http://www.w3.org/2000/svg">
<path d="M1.54037 3.0773C1.25312 2.77887 0.778334 2.76979 0.479899 3.05704C0.181463 3.34428 0.172391 3.81907 0.459635 4.1175L1.54037 3.0773ZM4 6.71429L3.45963 7.23439C3.60531 7.38574 3.80779 7.46906 4.0178 7.46407C4.22781 7.45909 4.4261 7.36626 4.56443 7.20816L4 6.71429ZM9.56443 1.49388C9.83719 1.18215 9.80561 0.708329 9.49388 0.435567C9.18215 0.162806 8.70833 0.194394 8.43557 0.506122L9.56443 1.49388ZM0.459635 4.1175L3.45963 7.23439L4.54037 6.19418L1.54037 3.0773L0.459635 4.1175ZM4.56443 7.20816L9.56443 1.49388L8.43557 0.506122L3.43557 6.22041L4.56443 7.20816Z" fill="white"/>
</svg>
