<svg width="21" height="22" viewBox="0 0 21 22" fill="none" xmlns="http://www.w3.org/2000/svg">
<mask id="path-1-outside-1" maskUnits="userSpaceOnUse" x="0" y="0" width="21" height="22" fill="black">
<rect fill="white" width="21" height="22"/>
<path d="M9.26042 1C8.52601 1 7.92084 1.60236 7.92084 2.33333V3.46528C6.93991 3.811 6.06757 4.35621 5.30446 5.02778L4.28584 4.46528C3.64314 4.1105 2.82088 4.34719 2.46484 4.98611L1.16713 7.31944C0.812474 7.95592 1.03973 8.7766 1.68342 9.13193L2.6951 9.68749C2.6239 10.116 2.56252 10.5521 2.56252 11C2.56252 11.4474 2.62405 11.8775 2.6951 12.3056L1.68342 12.868C1.03973 13.2234 0.812474 14.0441 1.16713 14.6806L2.46484 17.0139C2.82088 17.6528 3.64314 17.8895 4.28584 17.5347L5.30446 16.9722C6.06688 17.6425 6.94127 18.1825 7.92084 18.5278V19.6667C7.92084 20.3976 8.52601 21 9.26042 21H11.9396C12.674 21 13.2792 20.3976 13.2792 19.6667V18.5278C14.2587 18.1825 15.1331 17.6425 15.8955 16.9722L16.9141 17.5347C17.5568 17.8895 18.3791 17.6528 18.7351 17.0139L20.0329 14.6806C20.3875 14.0441 20.1603 13.2234 19.5166 12.868L18.5049 12.3056C18.5759 11.8775 18.6375 11.4474 18.6375 11C18.6375 10.5521 18.576 10.116 18.5049 9.68749L19.5166 9.13193C20.1603 8.7766 20.3875 7.95592 20.0329 7.31944L18.7351 4.98611C18.3791 4.34719 17.5568 4.1105 16.9141 4.46528L15.8955 5.02778C15.1324 4.35621 14.2601 3.811 13.2792 3.46528V2.33333C13.2792 1.60236 12.674 1 11.9396 1H9.26042ZM9.26042 1.88889H11.9396C12.1947 1.88889 12.3861 2.07942 12.3861 2.33333V3.77778C12.3861 3.96557 12.5199 4.14563 12.7001 4.20139C13.7821 4.53191 14.7568 5.11232 15.5536 5.875C15.6895 6.00477 15.9117 6.03426 16.0769 5.94444L17.3467 5.24306C17.5694 5.12014 17.8298 5.1943 17.9537 5.41667L19.2514 7.75C19.3767 7.9748 19.3056 8.2318 19.084 8.35415L17.8142 9.05556C17.648 9.14598 17.5529 9.35002 17.5909 9.53471C17.6904 10.0072 17.7444 10.4964 17.7444 11C17.7444 11.5036 17.6904 11.9858 17.5909 12.4583C17.5497 12.645 17.6454 12.8533 17.8142 12.9444L19.084 13.6458C19.3056 13.7682 19.3767 14.0252 19.2514 14.25L17.9537 16.5833C17.8298 16.8057 17.5694 16.8799 17.3467 16.7569L16.0769 16.0556C15.9131 15.964 15.6911 15.9905 15.5536 16.1181C14.7568 16.8807 13.7821 17.4611 12.7001 17.7917C12.5176 17.8481 12.3835 18.0321 12.3861 18.2222V19.6667C12.3861 19.9206 12.1947 20.1111 11.9396 20.1111H9.26042C9.00531 20.1111 8.81389 19.9206 8.81389 19.6667V18.2222C8.81657 18.0321 8.6823 17.8481 8.49994 17.7917C7.41791 17.4611 6.44324 16.8807 5.64634 16.1181C5.50892 15.9905 5.28689 15.964 5.12308 16.0556L3.85325 16.7569C3.63061 16.8799 3.37018 16.8057 3.24626 16.5833L1.94855 14.25C1.82327 14.0252 1.89436 13.7682 2.116 13.6458L3.3858 12.9444C3.55461 12.8533 3.65028 12.645 3.60907 12.4583C3.5096 11.9858 3.45557 11.5036 3.45557 11C3.45557 10.4964 3.5096 10.0072 3.60907 9.53471C3.64707 9.35002 3.552 9.14598 3.3858 9.05556L2.116 8.35415C1.89436 8.2318 1.82327 7.9748 1.94855 7.75L3.24626 5.41667C3.37018 5.1943 3.63061 5.12014 3.85325 5.24306L5.12308 5.94444C5.2883 6.03425 5.51053 6.00476 5.64634 5.875C6.44324 5.11232 7.41787 4.53191 8.49994 4.20139C8.68009 4.14562 8.81353 3.96556 8.81389 3.77778V2.33333C8.81389 2.07942 9.00531 1.88889 9.26042 1.88889ZM10.6 6.55556C8.13919 6.55556 6.13473 8.55064 6.13473 11C6.13473 13.4493 8.13919 15.4444 10.6 15.4444C13.0608 15.4444 15.0653 13.4493 15.0653 11C15.0653 8.55064 13.0608 6.55556 10.6 6.55556ZM10.6 7.44444C12.5782 7.44444 14.1722 9.03102 14.1722 11C14.1722 12.9689 12.5782 14.5556 10.6 14.5556C8.62184 14.5556 7.02778 12.9689 7.02778 11C7.02778 9.03102 8.62184 7.44444 10.6 7.44444Z"/>
</mask>
<path d="M9.26042 1C8.52601 1 7.92084 1.60236 7.92084 2.33333V3.46528C6.93991 3.811 6.06757 4.35621 5.30446 5.02778L4.28584 4.46528C3.64314 4.1105 2.82088 4.34719 2.46484 4.98611L1.16713 7.31944C0.812474 7.95592 1.03973 8.7766 1.68342 9.13193L2.6951 9.68749C2.6239 10.116 2.56252 10.5521 2.56252 11C2.56252 11.4474 2.62405 11.8775 2.6951 12.3056L1.68342 12.868C1.03973 13.2234 0.812474 14.0441 1.16713 14.6806L2.46484 17.0139C2.82088 17.6528 3.64314 17.8895 4.28584 17.5347L5.30446 16.9722C6.06688 17.6425 6.94127 18.1825 7.92084 18.5278V19.6667C7.92084 20.3976 8.52601 21 9.26042 21H11.9396C12.674 21 13.2792 20.3976 13.2792 19.6667V18.5278C14.2587 18.1825 15.1331 17.6425 15.8955 16.9722L16.9141 17.5347C17.5568 17.8895 18.3791 17.6528 18.7351 17.0139L20.0329 14.6806C20.3875 14.0441 20.1603 13.2234 19.5166 12.868L18.5049 12.3056C18.5759 11.8775 18.6375 11.4474 18.6375 11C18.6375 10.5521 18.576 10.116 18.5049 9.68749L19.5166 9.13193C20.1603 8.7766 20.3875 7.95592 20.0329 7.31944L18.7351 4.98611C18.3791 4.34719 17.5568 4.1105 16.9141 4.46528L15.8955 5.02778C15.1324 4.35621 14.2601 3.811 13.2792 3.46528V2.33333C13.2792 1.60236 12.674 1 11.9396 1H9.26042ZM9.26042 1.88889H11.9396C12.1947 1.88889 12.3861 2.07942 12.3861 2.33333V3.77778C12.3861 3.96557 12.5199 4.14563 12.7001 4.20139C13.7821 4.53191 14.7568 5.11232 15.5536 5.875C15.6895 6.00477 15.9117 6.03426 16.0769 5.94444L17.3467 5.24306C17.5694 5.12014 17.8298 5.1943 17.9537 5.41667L19.2514 7.75C19.3767 7.9748 19.3056 8.2318 19.084 8.35415L17.8142 9.05556C17.648 9.14598 17.5529 9.35002 17.5909 9.53471C17.6904 10.0072 17.7444 10.4964 17.7444 11C17.7444 11.5036 17.6904 11.9858 17.5909 12.4583C17.5497 12.645 17.6454 12.8533 17.8142 12.9444L19.084 13.6458C19.3056 13.7682 19.3767 14.0252 19.2514 14.25L17.9537 16.5833C17.8298 16.8057 17.5694 16.8799 17.3467 16.7569L16.0769 16.0556C15.9131 15.964 15.6911 15.9905 15.5536 16.1181C14.7568 16.8807 13.7821 17.4611 12.7001 17.7917C12.5176 17.8481 12.3835 18.0321 12.3861 18.2222V19.6667C12.3861 19.9206 12.1947 20.1111 11.9396 20.1111H9.26042C9.00531 20.1111 8.81389 19.9206 8.81389 19.6667V18.2222C8.81657 18.0321 8.6823 17.8481 8.49994 17.7917C7.41791 17.4611 6.44324 16.8807 5.64634 16.1181C5.50892 15.9905 5.28689 15.964 5.12308 16.0556L3.85325 16.7569C3.63061 16.8799 3.37018 16.8057 3.24626 16.5833L1.94855 14.25C1.82327 14.0252 1.89436 13.7682 2.116 13.6458L3.3858 12.9444C3.55461 12.8533 3.65028 12.645 3.60907 12.4583C3.5096 11.9858 3.45557 11.5036 3.45557 11C3.45557 10.4964 3.5096 10.0072 3.60907 9.53471C3.64707 9.35002 3.552 9.14598 3.3858 9.05556L2.116 8.35415C1.89436 8.2318 1.82327 7.9748 1.94855 7.75L3.24626 5.41667C3.37018 5.1943 3.63061 5.12014 3.85325 5.24306L5.12308 5.94444C5.2883 6.03425 5.51053 6.00476 5.64634 5.875C6.44324 5.11232 7.41787 4.53191 8.49994 4.20139C8.68009 4.14562 8.81353 3.96556 8.81389 3.77778V2.33333C8.81389 2.07942 9.00531 1.88889 9.26042 1.88889ZM10.6 6.55556C8.13919 6.55556 6.13473 8.55064 6.13473 11C6.13473 13.4493 8.13919 15.4444 10.6 15.4444C13.0608 15.4444 15.0653 13.4493 15.0653 11C15.0653 8.55064 13.0608 6.55556 10.6 6.55556ZM10.6 7.44444C12.5782 7.44444 14.1722 9.03102 14.1722 11C14.1722 12.9689 12.5782 14.5556 10.6 14.5556C8.62184 14.5556 7.02778 12.9689 7.02778 11C7.02778 9.03102 8.62184 7.44444 10.6 7.44444Z" fill="#24264C"/>
<path d="M9.26042 1C8.52601 1 7.92084 1.60236 7.92084 2.33333V3.46528C6.93991 3.811 6.06757 4.35621 5.30446 5.02778L4.28584 4.46528C3.64314 4.1105 2.82088 4.34719 2.46484 4.98611L1.16713 7.31944C0.812474 7.95592 1.03973 8.7766 1.68342 9.13193L2.6951 9.68749C2.6239 10.116 2.56252 10.5521 2.56252 11C2.56252 11.4474 2.62405 11.8775 2.6951 12.3056L1.68342 12.868C1.03973 13.2234 0.812474 14.0441 1.16713 14.6806L2.46484 17.0139C2.82088 17.6528 3.64314 17.8895 4.28584 17.5347L5.30446 16.9722C6.06688 17.6425 6.94127 18.1825 7.92084 18.5278V19.6667C7.92084 20.3976 8.52601 21 9.26042 21H11.9396C12.674 21 13.2792 20.3976 13.2792 19.6667V18.5278C14.2587 18.1825 15.1331 17.6425 15.8955 16.9722L16.9141 17.5347C17.5568 17.8895 18.3791 17.6528 18.7351 17.0139L20.0329 14.6806C20.3875 14.0441 20.1603 13.2234 19.5166 12.868L18.5049 12.3056C18.5759 11.8775 18.6375 11.4474 18.6375 11C18.6375 10.5521 18.576 10.116 18.5049 9.68749L19.5166 9.13193C20.1603 8.7766 20.3875 7.95592 20.0329 7.31944L18.7351 4.98611C18.3791 4.34719 17.5568 4.1105 16.9141 4.46528L15.8955 5.02778C15.1324 4.35621 14.2601 3.811 13.2792 3.46528V2.33333C13.2792 1.60236 12.674 1 11.9396 1H9.26042ZM9.26042 1.88889H11.9396C12.1947 1.88889 12.3861 2.07942 12.3861 2.33333V3.77778C12.3861 3.96557 12.5199 4.14563 12.7001 4.20139C13.7821 4.53191 14.7568 5.11232 15.5536 5.875C15.6895 6.00477 15.9117 6.03426 16.0769 5.94444L17.3467 5.24306C17.5694 5.12014 17.8298 5.1943 17.9537 5.41667L19.2514 7.75C19.3767 7.9748 19.3056 8.2318 19.084 8.35415L17.8142 9.05556C17.648 9.14598 17.5529 9.35002 17.5909 9.53471C17.6904 10.0072 17.7444 10.4964 17.7444 11C17.7444 11.5036 17.6904 11.9858 17.5909 12.4583C17.5497 12.645 17.6454 12.8533 17.8142 12.9444L19.084 13.6458C19.3056 13.7682 19.3767 14.0252 19.2514 14.25L17.9537 16.5833C17.8298 16.8057 17.5694 16.8799 17.3467 16.7569L16.0769 16.0556C15.9131 15.964 15.6911 15.9905 15.5536 16.1181C14.7568 16.8807 13.7821 17.4611 12.7001 17.7917C12.5176 17.8481 12.3835 18.0321 12.3861 18.2222V19.6667C12.3861 19.9206 12.1947 20.1111 11.9396 20.1111H9.26042C9.00531 20.1111 8.81389 19.9206 8.81389 19.6667V18.2222C8.81657 18.0321 8.6823 17.8481 8.49994 17.7917C7.41791 17.4611 6.44324 16.8807 5.64634 16.1181C5.50892 15.9905 5.28689 15.964 5.12308 16.0556L3.85325 16.7569C3.63061 16.8799 3.37018 16.8057 3.24626 16.5833L1.94855 14.25C1.82327 14.0252 1.89436 13.7682 2.116 13.6458L3.3858 12.9444C3.55461 12.8533 3.65028 12.645 3.60907 12.4583C3.5096 11.9858 3.45557 11.5036 3.45557 11C3.45557 10.4964 3.5096 10.0072 3.60907 9.53471C3.64707 9.35002 3.552 9.14598 3.3858 9.05556L2.116 8.35415C1.89436 8.2318 1.82327 7.9748 1.94855 7.75L3.24626 5.41667C3.37018 5.1943 3.63061 5.12014 3.85325 5.24306L5.12308 5.94444C5.2883 6.03425 5.51053 6.00476 5.64634 5.875C6.44324 5.11232 7.41787 4.53191 8.49994 4.20139C8.68009 4.14562 8.81353 3.96556 8.81389 3.77778V2.33333C8.81389 2.07942 9.00531 1.88889 9.26042 1.88889ZM10.6 6.55556C8.13919 6.55556 6.13473 8.55064 6.13473 11C6.13473 13.4493 8.13919 15.4444 10.6 15.4444C13.0608 15.4444 15.0653 13.4493 15.0653 11C15.0653 8.55064 13.0608 6.55556 10.6 6.55556ZM10.6 7.44444C12.5782 7.44444 14.1722 9.03102 14.1722 11C14.1722 12.9689 12.5782 14.5556 10.6 14.5556C8.62184 14.5556 7.02778 12.9689 7.02778 11C7.02778 9.03102 8.62184 7.44444 10.6 7.44444Z" stroke="#24264C" stroke-width="0.4" mask="url(#path-1-outside-1)"/>
</svg>
