<svg width="23" height="18" viewBox="0 0 23 18" fill="none" xmlns="http://www.w3.org/2000/svg">
<path d="M10.0677 12.993C9.62193 13.7678 9.89541 14.7603 10.6784 15.2078L10.0677 12.993ZM10.0677 12.993L15.6012 6.76444L12.9224 14.6167C12.4666 15.3875 11.4614 15.6551 10.6784 15.2078L10.0677 12.993ZM0.1 11.382C0.1 5.16437 5.21535 0.1 11.5 0.1C17.7846 0.1 22.9 5.16437 22.9 11.382C22.9 13.7886 22.1274 16.0228 20.8231 17.8572L19.3467 16.7076C20.3942 15.1947 21.0091 13.3605 21.0091 11.382C21.0091 6.17041 16.7631 1.96945 11.5 1.96945C6.23687 1.96945 1.99091 6.17041 1.99091 11.382C1.99091 13.3605 2.60576 15.1947 3.65335 16.7076L2.17686 17.8572C0.872598 16.0228 0.1 13.7886 0.1 11.382Z" fill="#24264C" stroke="#F3F3F9" stroke-width="0.2"/>
</svg>
