<svg width="24" height="22" viewBox="0 0 24 22" fill="none" xmlns="http://www.w3.org/2000/svg">
<path d="M23.0456 17.6649L23.0456 17.6649L23.0499 17.9588C23.0499 17.959 23.0499 17.9592 23.0499 17.9593L23.0499 17.9597L23.0456 17.6649ZM23.0456 17.6649C23.0346 16.9557 23.0305 16.7713 23.0223 16.6863L23.0223 16.6859M23.0456 17.6649L23.0223 16.6859M23.0223 16.6859C22.849 15.0235 22.0941 13.7313 20.8189 12.8561C19.5454 11.9821 17.7571 11.5269 15.5204 11.5269C15.4908 11.5269 15.4617 11.528 15.4334 11.5291L15.4199 11.5295L15.4062 11.5291C15.4062 11.5291 15.4061 11.5291 15.4061 11.5291C15.3783 11.528 15.3493 11.5269 15.3187 11.5269C13.082 11.5269 11.2939 11.9821 10.0205 12.856C8.74547 13.7311 7.99091 15.0232 7.81785 16.6856L7.81785 16.6857M23.0223 16.6859L7.81785 16.6857M7.81785 16.6857C7.80962 16.7661 7.80553 16.9192 7.79556 17.5801L7.81785 16.6857ZM22.7766 18.546C22.7728 18.5491 22.7691 18.5518 22.7665 18.5537L22.7596 18.559L22.7588 18.5596L22.7568 18.5612C20.691 20.1894 18.1544 21.05 15.4197 21.05H15.4187C12.6062 21.05 10.1298 20.2067 8.05888 18.5424C8.05013 18.5355 8.0429 18.5281 8.03739 18.5224C8.03554 18.5204 8.03393 18.5187 8.03248 18.5172C8.02894 18.5134 8.02631 18.5106 8.02324 18.5077L8.05767 18.4715M22.7766 18.546L7.79962 18.083C7.79963 18.083 7.79963 18.083 7.79963 18.083C7.80309 18.1078 7.80904 18.1304 7.81444 18.151L7.81467 18.1518L7.81487 18.1526L7.81566 18.1559C7.82036 18.1751 7.82554 18.1963 7.83279 18.2177C7.84036 18.24 7.85022 18.2609 7.85901 18.2795L7.86041 18.2825C7.86043 18.2825 7.86046 18.2826 7.86048 18.2826C7.86191 18.2857 7.8634 18.289 7.86495 18.2924C7.87215 18.3082 7.88079 18.3271 7.89123 18.3447L7.93419 18.3191M22.7766 18.546C22.7855 18.539 22.793 18.5315 22.7984 18.5259C22.7996 18.5246 22.8008 18.5234 22.8018 18.5224C22.806 18.518 22.8087 18.5151 22.8118 18.5124L22.8126 18.5117C22.8161 18.5084 22.8199 18.5049 22.8239 18.5012C22.8375 18.4888 22.8535 18.4741 22.8673 18.4584L22.8677 18.458C22.8836 18.4395 22.8971 18.4202 22.9089 18.4037C22.9103 18.4018 22.9118 18.3998 22.9132 18.3978C22.924 18.3827 22.9364 18.3655 22.9472 18.3476L22.9475 18.3471C22.9573 18.3304 22.9656 18.3126 22.9728 18.2972C22.9747 18.293 22.9766 18.2889 22.9785 18.2851L22.9787 18.2846L22.9805 18.2808C22.9888 18.263 22.9979 18.2434 23.0057 18.2225L23.0058 18.2225L23.0064 18.2205C23.0131 18.2004 23.0182 18.1803 23.0229 18.1621L23.0248 18.1545L23.0249 18.1539C23.0259 18.1501 23.0269 18.1461 23.028 18.1418C23.0321 18.1256 23.037 18.1064 23.0399 18.0871C23.0398 18.0873 23.0398 18.0875 23.0398 18.0877L22.7766 18.546ZM8.05767 18.4715L8.0235 18.508C8.02141 18.506 8.01927 18.504 8.01708 18.502C8.00256 18.4885 7.9861 18.4731 7.97121 18.4562L8.00874 18.4232M8.05767 18.4715C8.05544 18.4694 8.05322 18.4673 8.051 18.4652C8.03634 18.4516 8.02186 18.4381 8.00874 18.4232M8.05767 18.4715C8.0618 18.4754 8.06572 18.4795 8.06963 18.4837C8.07615 18.4906 8.08268 18.4975 8.0902 18.5034C10.1517 20.1601 12.6168 21 15.4187 21H15.4197C18.1436 21 20.6693 20.1429 22.7258 18.5219L7.90576 18.2614C7.90748 18.2651 7.90919 18.2689 7.9109 18.2726C7.91807 18.2883 7.9253 18.3042 7.93419 18.3191M8.00874 18.4232L7.97142 18.4564C7.95839 18.4418 7.94657 18.4253 7.93679 18.4117C7.93419 18.408 7.93173 18.4046 7.92944 18.4015C7.91675 18.3841 7.90344 18.3655 7.89107 18.3444L7.93419 18.3191M8.00874 18.4232C7.99769 18.4108 7.98801 18.3973 7.97841 18.3839C7.97554 18.3799 7.97269 18.3759 7.9698 18.3719C7.95725 18.3548 7.94521 18.3379 7.93419 18.3191M22.7915 18.463C22.8047 18.4509 22.8179 18.4388 22.8298 18.4253L22.7279 18.5203C22.7308 18.5179 22.7338 18.5157 22.7369 18.5134C22.7399 18.5112 22.7429 18.509 22.7458 18.5066C22.7529 18.5011 22.7591 18.4946 22.7652 18.4882C22.7695 18.4838 22.7738 18.4793 22.7784 18.4752C22.7827 18.4711 22.7871 18.4671 22.7915 18.463ZM15.4199 10.9978C17.7746 10.9978 19.6723 8.60457 19.6723 5.68715C19.6723 4.29702 19.2369 3.11276 18.4861 2.27539C17.735 1.43762 16.6708 0.95 15.4199 0.95C14.1694 0.95 13.1052 1.43762 12.3542 2.27539C11.6035 3.11276 11.1681 4.29702 11.1681 5.68715C11.1679 8.60457 13.0658 10.9978 15.4199 10.9978ZM15.4199 2.39126C16.2801 2.39126 16.9964 2.72169 17.4984 3.29656C18.0008 3.87201 18.2914 4.69602 18.2914 5.68715C18.2914 6.75807 17.9667 7.7272 17.4447 8.42747C16.9228 9.12775 16.206 9.55657 15.4199 9.55657C14.6341 9.55657 13.9175 9.12769 13.3956 8.42737C12.8737 7.72707 12.549 6.75793 12.549 5.68715C12.5489 4.69588 12.8394 3.87188 13.3418 3.29645C13.8436 2.72163 14.5599 2.39126 15.4199 2.39126ZM15.4199 19.609H15.4189C13.0405 19.609 10.9437 18.9361 9.17655 17.612L9.17669 17.6028C9.18079 17.3231 9.18714 16.9047 9.19113 16.8404C9.35765 15.2417 10.2313 14.2762 11.3913 13.708C12.5543 13.1383 14.0053 12.9685 15.3182 12.9684L15.4039 12.971C15.4145 12.9716 15.4259 12.9716 15.4367 12.971L15.5214 12.9684C16.8343 12.9685 18.2853 13.1383 19.4483 13.7062C20.6083 14.2726 21.4817 15.2343 21.648 16.8254C21.6528 16.9016 21.6595 17.314 21.6638 17.6088C19.8882 18.9177 17.7384 19.609 15.4199 19.609ZM9.50383 7.80896C9.50383 7.41308 9.19693 7.08833 8.81339 7.08833H5.91736V4.05344C5.91736 3.65757 5.61046 3.33281 5.22692 3.33281C4.84338 3.33281 4.53647 3.65757 4.53647 4.05344V7.08833H1.64044C1.2569 7.08833 0.95 7.41308 0.95 7.80896C0.95 8.20483 1.2569 8.52958 1.64044 8.52958H4.53647V11.5645C4.53647 11.9603 4.84338 12.2851 5.22692 12.2851C5.61046 12.2851 5.91736 11.9603 5.91736 11.5645V8.52958H8.81339C9.19666 8.52958 9.50383 8.20484 9.50383 7.80896Z" fill="#24264C" stroke="#24264C" stroke-width="0.1"/>
</svg>
