<svg width="22" height="22" viewBox="0 0 22 22" fill="none" xmlns="http://www.w3.org/2000/svg">
<path d="M4.38316 13.9405H5.57914V20.4736C5.57914 20.7924 5.84089 21.05 6.1622 21.05H8.9242C9.24551 21.05 9.50726 20.7924 9.50726 20.4736V13.9405H11.7019L18.2964 19.9941C18.6715 20.3388 19.2702 20.0698 19.2757 19.5733V19.5727V12.9609C20.324 12.624 21.05 11.6522 21.05 10.5495C21.05 9.44692 20.324 8.47515 19.2757 8.13825V1.52591C19.2757 0.99999 18.6277 0.75836 18.2703 1.12848L11.703 7.1587H4.38316C2.49422 7.1587 0.95 8.68293 0.95 10.5497C0.95 12.4165 2.49448 13.9405 4.38316 13.9405ZM6.74526 19.8972V13.9405H8.34114V19.8972H6.74526ZM9.80103 10.5497V8.31171H11.5697V12.7877H9.80103V10.5497ZM8.63491 8.31171V12.7877H4.38316C3.13684 12.7877 2.11612 11.7789 2.11612 10.5495C2.11612 9.32054 3.13709 8.31171 4.38316 8.31171H8.63491ZM18.1095 18.2545L12.7358 13.3315V7.76687L18.1095 2.84414V18.2545Z" fill="#24264C" stroke="#24264C" stroke-width="0.1"/>
</svg>
