<svg width="22" height="22" viewBox="0 0 22 22" fill="none" xmlns="http://www.w3.org/2000/svg">
<path d="M7.18226 19.7613H2.26015V14.9282H7.18226V19.7613ZM19.7376 19.7613H14.8154V14.9282H19.7376V19.7613ZM20.4229 13.6395H17.9618V10.7771C17.9618 10.4218 17.6663 10.1328 17.3067 10.1328H11.6993V8.36055H14.1604C14.5199 8.36055 14.8154 8.07154 14.8154 7.7162V1.59435C14.8154 1.23901 14.5199 0.95 14.1604 0.95H7.9281C7.56854 0.95 7.27302 1.23901 7.27302 1.59435V7.7162C7.27302 8.07154 7.56854 8.36055 7.9281 8.36055H10.3892V10.1328H4.72121C4.36165 10.1328 4.06613 10.4218 4.06613 10.7771V13.6395H1.60507C1.24552 13.6395 0.95 13.9285 0.95 14.2838V20.4056C0.95 20.761 1.24552 21.05 1.60507 21.05H7.83734C8.1969 21.05 8.49241 20.761 8.49241 20.4056V14.2838C8.49241 13.9285 8.1969 13.6395 7.83734 13.6395H5.37628V11.4215H16.6214V13.6395H14.1604C13.8008 13.6395 13.5053 13.9285 13.5053 14.2838V20.4056C13.5053 20.761 13.8008 21.05 14.1604 21.05H20.3926C20.7522 21.05 21.0477 20.761 21.0477 20.4056V14.2861C21.0795 13.9273 20.7805 13.6395 20.4229 13.6395ZM8.58317 2.23871H13.5053V7.07184H8.58317V2.23871Z" fill="#24264C" stroke="#24264C" stroke-width="0.1"/>
</svg>
