<?xml version="1.0" standalone="no"?>
<!DOCTYPE svg PUBLIC "-//W3C//DTD SVG 1.1//EN" "http://www.w3.org/Graphics/SVG/1.1/DTD/svg11.dtd" >
<svg xmlns="http://www.w3.org/2000/svg">
<metadata>Created by Icons8</metadata>
<defs>
  <font id="Icons" horiz-adv-x="1024">
    <font-face font-family="Icons"
      units-per-em="1024" ascent="896"
      descent="128"
      font-weight="500" />
    <missing-glyph horiz-adv-x="0" />
    <glyph glyph-name="speed"
      unicode="&#xF102;"
      horiz-adv-x="1024" d="M512 768C253.2946432 768 42.6666666666667 557.3720234666666 42.6666666666667 298.6666666666668C42.6666666666667 213.3251413333335 65.5551573333333 132.9635413333334 105.4999978666667 63.9166720000001A42.6709333333333 42.6709333333333 0 0 1 142.4166656 42.5833386666667L881.5833173333333 42.6666666666667A42.6709333333333 42.6709333333333 0 0 1 918.5000106666666 64C958.4406613333334 133.039616 981.3333333333331 213.3251413333335 981.3333333333331 298.6666666666668C981.3333333333331 557.3720234666666 770.7053653333334 768 512 768zM512 682.6666666666667C724.5906346666667 682.6666666666667 896 511.2573098666667 896 298.6666666666668C896 236.7621546666667 879.4683306666667 179.6426240000001 853.5833173333333 128L809.5833173333333 128A42.6666666666667 42.6666666666667 0 0 1 810.6666666666666 137.3333333333334A42.6666666666667 42.6666666666667 0 0 1 768 180A42.6666666666667 42.6666666666667 0 0 1 725.3333333333333 137.3333333333334A42.6666666666667 42.6666666666667 0 0 1 726.4166826666666 128L292.8333312 127.9166720000001A42.6666666666667 42.6666666666667 0 0 1 298.6666666666667 149.3333333333334A42.6666666666667 42.6666666666667 0 0 1 256 192A42.6666666666667 42.6666666666667 0 0 1 213.3333333333333 149.3333333333334A42.6666666666667 42.6666666666667 0 0 1 219.1666688 127.9166720000001L170.5000021333334 127.9166720000001C144.5917184 179.5856213333334 128 236.729728 128 298.6666666666668C128 511.2573098666667 299.4093568 682.6666666666667 512 682.6666666666667zM512 640A42.6666666666667 42.6666666666667 0 0 1 469.3333333333333 597.3333333333334A42.6666666666667 42.6666666666667 0 0 1 512 554.6666666666667A42.6666666666667 42.6666666666667 0 0 1 554.6666666666666 597.3333333333334A42.6666666666667 42.6666666666667 0 0 1 512 640zM362.6666666666667 597.3333333333334A42.6666666666667 42.6666666666667 0 0 1 320 554.6666666666667A42.6666666666667 42.6666666666667 0 0 1 362.6666666666667 512A42.6666666666667 42.6666666666667 0 0 1 405.3333333333333 554.6666666666667A42.6666666666667 42.6666666666667 0 0 1 362.6666666666667 597.3333333333334zM658.6666666666666 597.3333333333334A42.6666666666667 42.6666666666667 0 0 1 616 554.6666666666667A42.6666666666667 42.6666666666667 0 0 1 658.6666666666666 512A42.6666666666667 42.6666666666667 0 0 1 701.3333333333333 554.6666666666667A42.6666666666667 42.6666666666667 0 0 1 658.6666666666666 597.3333333333334zM769.750016 495.0833322666667L554.9166506666666 372.333312A85.3333333333333 85.3333333333333 0 0 1 512 384A85.3333333333333 85.3333333333333 0 0 1 426.6666666666667 298.6666666666668A85.3333333333333 85.3333333333333 0 0 1 512 213.3333333333334A85.3333333333333 85.3333333333333 0 0 1 597.3333333333333 298.2499840000001L812.0833279999999 421.0000213333334L769.750016 495.0833322666667zM256 490.6666666666667A42.6666666666667 42.6666666666667 0 0 1 213.3333333333333 448A42.6666666666667 42.6666666666667 0 0 1 256 405.3333333333334A42.6666666666667 42.6666666666667 0 0 1 298.6666666666667 448A42.6666666666667 42.6666666666667 0 0 1 256 490.6666666666667zM213.3333333333333 341.3333333333334A42.6666666666667 42.6666666666667 0 0 1 170.6666666666667 298.6666666666668A42.6666666666667 42.6666666666667 0 0 1 213.3333333333333 256A42.6666666666667 42.6666666666667 0 0 1 256 298.6666666666668A42.6666666666667 42.6666666666667 0 0 1 213.3333333333333 341.3333333333334zM810.6666666666666 341.3333333333334A42.6666666666667 42.6666666666667 0 0 1 768 298.6666666666668A42.6666666666667 42.6666666666667 0 0 1 810.6666666666666 256A42.6666666666667 42.6666666666667 0 0 1 853.3333333333333 298.6666666666668A42.6666666666667 42.6666666666667 0 0 1 810.6666666666666 341.3333333333334z" />
    <glyph glyph-name="sum"
      unicode="&#xF103;"
      horiz-adv-x="1024" d="M213.3333333333333 768C166.6959872 768 128 729.3040128 128 682.6666666666667L128 85.3333333333334C128 38.6959786666666 166.6959872 0 213.3333333333333 0L810.6666666666666 0C857.3040213333334 0 896 38.6959786666666 896 85.3333333333334L896 682.6666666666667C896 729.3040128 857.3040213333334 768 810.6666666666666 768L213.3333333333333 768zM213.3333333333333 682.6666666666667L810.6666666666666 682.6666666666667L810.6666666666666 85.3333333333334L213.3333333333333 85.3333333333334L213.3333333333333 682.6666666666667zM469.3333333333333 597.3333333333334L469.3333333333333 426.6666666666667L298.6666666666667 426.6666666666667L298.6666666666667 341.3333333333334L469.3333333333333 341.3333333333334L469.3333333333333 170.6666666666668L554.6666666666666 170.6666666666668L554.6666666666666 341.3333333333334L725.3333333333333 341.3333333333334L725.3333333333333 426.6666666666667L554.6666666666666 426.6666666666667L554.6666666666666 597.3333333333334L469.3333333333333 597.3333333333334z" />
    <glyph glyph-name="update-left-rotation"
      unicode="&#xF104;"
      horiz-adv-x="1024" d="M512 768C395.244544 768 290.7800490666667 715.4487296 220.4166656 632.9166677333334L128 725.3333333333334L128 469.3333333333334L384 469.3333333333334L281.2500010666667 572.0833322666667C335.9911338666667 639.283392 418.7691989333333 682.6666666666667 512 682.6666666666667C676.6506666666667 682.6666666666667 810.6666666666666 548.6933333333334 810.6666666666666 384L896 384C896 595.712 723.7546666666667 768 512 768zM128 384C128 172.2453333333333 300.2453333333333 0 512 0C628.755456 0 733.219968 52.5512533333334 803.5833173333333 135.0833493333333L896 42.6666666666667L896 298.6666666666668L640 298.6666666666668L742.7499946666667 195.9166720000001C688.0088746666667 128.7166293333334 605.2308053333334 85.3333333333334 512 85.3333333333334C347.3493333333334 85.3333333333334 213.3333333333333 219.3493333333333 213.3333333333333 384L128 384z" />
    <glyph glyph-name="folder"
      unicode="&#xF105;"
      horiz-adv-x="1024" d="M170.6666666666667 725.3333333333334C123.9784661333333 725.3333333333334 85.3333333333333 686.6882005333333 85.3333333333333 640L85.3333333333333 128C85.3333333333333 81.3117866666667 123.9784661333333 42.6666666666667 170.6666666666667 42.6666666666667L853.3333333333333 42.6666666666667C900.0215466666666 42.6666666666667 938.6666666666666 81.3117866666667 938.6666666666666 128L938.6666666666666 554.6666666666667C938.6666666666666 601.3548672 900.0215466666666 640 853.3333333333333 640L512 640L426.6666666666667 725.3333333333334L170.6666666666667 725.3333333333334zM170.6666666666667 640L391.3333333333333 640L476.6666666666666 554.6666666666667L853.3333333333333 554.6666666666667L853.3333333333333 128L170.6666666666667 128L170.6666666666667 640z" />
    <glyph glyph-name="male-user"
      unicode="&#xF106;"
      horiz-adv-x="1024" d="M512 810.6666666666666C276.352 810.6666666666666 85.3333333333333 619.648 85.3333333333333 384C85.3333333333333 148.3520000000001 276.352 -42.6666666666666 512 -42.6666666666666C747.6479999999999 -42.6666666666666 938.6666666666666 148.3520000000001 938.6666666666666 384C938.6666666666666 619.648 747.6479999999999 810.6666666666666 512 810.6666666666666zM512 725.3333333333334C700.5013333333333 725.3333333333334 853.3333333333333 572.5013333333334 853.3333333333333 384C853.3333333333333 315.8488746666667 833.0839040000001 252.539392 798.6666666666666 199.2500053333333L765.8333439999999 224.6666666666668C699.6146773333332 275.7386666666667 577.5786666666667 298.6666666666668 512 298.6666666666668C446.4213333333333 298.6666666666668 324.3426688 275.7386666666667 258.1666645333334 224.6666666666668L225.3333333333333 199.1666773333334C190.8924970666666 252.4683093333333 170.6666666666667 315.8234453333335 170.6666666666667 384C170.6666666666667 572.5013333333334 323.4986666666666 725.3333333333334 512 725.3333333333334zM512 650.6666666666667C435.5413333333334 650.6666666666667 373.3333333333333 588.4586666666667 373.3333333333333 512C373.3333333333333 435.5413333333334 435.5413333333334 373.3333333333334 512 373.3333333333334C588.4586666666667 373.3333333333334 650.6666666666666 435.5413333333334 650.6666666666666 512C650.6666666666666 588.4586666666667 588.4586666666667 650.6666666666667 512 650.6666666666667zM512 565.3333333333334C541.3973333333333 565.3333333333334 565.3333333333333 541.3973333333333 565.3333333333333 512C565.3333333333333 482.6026666666667 541.3973333333333 458.6666666666667 512 458.6666666666667C482.6026666666667 458.6666666666667 458.6666666666666 482.6026666666667 458.6666666666666 512C458.6666666666666 541.3973333333333 482.6026666666667 565.3333333333334 512 565.3333333333334zM512 213.3333333333334C644.2971306666666 213.3333333333334 715.4387199999999 163.4783146666667 748.7499946666667 138.5000106666667C687.3593173333334 79.2817493333334 604.0256853333333 42.6666666666667 512 42.6666666666667C419.9743146666666 42.6666666666667 336.6406997333334 79.2817493333334 275.2500010666667 138.5000106666667C308.56128 163.4783146666667 379.7028693333333 213.3333333333334 512 213.3333333333334zM258.3333333333333 156.1666560000001C263.4946517333333 150.4797440000001 268.6835626666667 144.817024 274.1666645333334 139.4999893333334C268.6768682666667 144.8411306666667 263.4550442666666 150.4690773333334 258.3333333333333 156.1666560000001zM764.249984 154.6666666666668C759.5705599999999 149.5234986666667 754.8986026666666 144.3488000000001 749.916672 139.4999893333334C754.8851626666666 144.3191040000001 759.528832 149.5476053333334 764.249984 154.6666666666668z" />
    <glyph glyph-name="user"
      unicode="&#xF107;"
      horiz-adv-x="1024" d="M512 768C418.2487722666666 768 341.3333333333333 691.0845610666667 341.3333333333333 597.3333333333334C341.3333333333333 503.5821056 418.2487722666666 426.6666666666667 512 426.6666666666667C605.7512106666666 426.6666666666667 682.6666666666666 503.5821056 682.6666666666666 597.3333333333334C682.6666666666666 691.0845610666667 605.7512106666666 768 512 768zM512 682.6666666666667C559.633664 682.6666666666667 597.3333333333333 644.9670016 597.3333333333333 597.3333333333334C597.3333333333333 549.6996650666667 559.633664 512 512 512C464.3663359999999 512 426.6666666666667 549.6996650666667 426.6666666666667 597.3333333333334C426.6666666666667 644.9670016 464.3663359999999 682.6666666666667 512 682.6666666666667zM512 298.6666666666668C437.548672 298.6666666666668 349.3189888 281.1825920000001 275.1666688 251.9166720000001C238.0905045333334 237.2837120000001 204.5737002666667 219.9018666666667 177.7499989333333 197.5833173333334C150.9262976 175.2648106666668 128 145.0929493333333 128 106.6666666666667L128 0L896 0L896 42.6666666666667L896 106.6666666666667C896 145.0929493333333 873.0737066666667 175.2648106666668 846.249984 197.5833173333334C819.4263040000001 219.9018666666667 785.909504 237.2837120000001 748.8333226666666 251.9166720000001C674.6810026666667 281.1825920000001 586.451328 298.6666666666668 512 298.6666666666668zM512 213.3333333333334C572.332672 213.3333333333334 654.7650133333333 197.3760426666667 717.5833173333333 172.5833386666667C748.9925119999999 160.1869653333333 775.5503359999999 145.4094933333335 791.6666879999999 132C807.7829119999999 118.5905066666667 810.6666666666666 109.4563840000001 810.6666666666666 106.6666666666667L810.6666666666666 85.3333333333334L213.3333333333333 85.3333333333334L213.3333333333333 106.6666666666667C213.3333333333333 109.4563840000001 216.2170325333333 118.5905066666667 232.3333333333333 132C248.4496341333334 145.4094933333335 275.0074965333333 160.1869653333333 306.4166656 172.5833386666667C369.235008 197.3760426666667 451.667328 213.3333333333334 512 213.3333333333334z" />
    <glyph glyph-name="profile"
      unicode="&#xF108;"
      horiz-adv-x="1024" d="M298.6666666666667 810.6666666666666C251.6053333333334 810.6666666666666 213.3333333333333 772.3946666666667 213.3333333333333 725.3333333333334L213.3333333333333 596.3333333333334C238.2506666666667 615.1493333333333 266.9226666666667 629.224 298.6666666666667 635.6666666666667L298.6666666666667 725.3333333333334L597.3333333333333 725.3333333333334L597.3333333333333 512L810.6666666666666 512L810.6666666666666 42.6666666666667L682.6666666666666 42.6666666666667L682.6666666666666 -42.6666666666666L810.6666666666666 -42.6666666666666C857.7280000000001 -42.6666666666666 896 -4.3946666666667 896 42.6666666666667L896 554.6666666666667L640 810.6666666666666L298.6666666666667 810.6666666666666zM341.3333333333333 554.6666666666667C271.1462570666667 554.6666666666667 213.3333333333333 496.8537429333334 213.3333333333333 426.6666666666667C213.3333333333333 356.4795733333334 271.1462570666667 298.6666666666668 341.3333333333333 298.6666666666668C411.5204096 298.6666666666668 469.3333333333333 356.4795733333334 469.3333333333333 426.6666666666667C469.3333333333333 496.8537429333334 411.5204096 554.6666666666667 341.3333333333333 554.6666666666667zM341.3333333333333 469.3333333333334C365.4028544 469.3333333333334 384 450.7361706666667 384 426.6666666666667C384 402.5971626666667 365.4028544 384 341.3333333333333 384C317.2638122666667 384 298.6666666666667 402.5971626666667 298.6666666666667 426.6666666666667C298.6666666666667 450.7361706666667 317.2638122666667 469.3333333333334 341.3333333333333 469.3333333333334zM341.3333333333333 213.3333333333334C278.3382016 213.3333333333334 220.3824597333334 203.4107306666667 174.0833322666667 183.4999893333334C150.9337685333333 173.5446186666667 130.4393898666667 161.0754986666668 114 143.750016C97.5606101333333 126.4245333333333 85.3333333333333 102.3710293333334 85.3333333333333 76.0833280000001L85.3333333333333 -42.6666666666666L597.3333333333333 -42.6666666666666L597.3333333333333 0L597.3333333333333 76.0833280000001C597.3333333333333 102.3710293333334 585.106048 126.4245333333333 568.6666666666666 143.750016C552.2272853333333 161.0754986666668 531.7329066666666 173.5446186666667 508.5833386666666 183.4999893333334C462.2842026666666 203.4107306666667 404.3284650666667 213.3333333333334 341.3333333333333 213.3333333333334zM341.3333333333333 128C394.8608682666666 128 443.5964586666667 118.5166080000001 474.8333226666667 105.0833493333333C490.4517546666667 98.3666773333333 501.3960533333333 90.6425173333335 506.7499946666667 85.0000213333333C512.103936 79.3574826666667 512 77.6996266666668 512 76.0833280000001L512 42.6666666666667L170.6666666666667 42.6666666666667L170.6666666666667 76.0833280000001C170.6666666666667 77.6995413333334 170.56256 79.3575680000001 175.9166677333333 85.0000213333333C181.2706090666667 90.6424746666667 192.2148906666667 98.3666773333333 207.8333354666667 105.0833493333333C239.0702037333334 118.5166080000001 287.8057984 128 341.3333333333333 128z" />
    <glyph glyph-name="alarm"
      unicode="&#xF109;"
      horiz-adv-x="1024" d="M512 810.6666666666666C476.672 810.6666666666666 448 781.9946666666667 448 746.6666666666667L448 717C337.6291669333333 688.5506133333333 256 588.5951957333334 256 469.3333333333334L256 213.3333333333334L170.6666666666667 128L170.6666666666667 85.3333333333334L438.166656 85.3333333333334A85.3333333333333 85.3333333333333 0 0 1 426.6666666666667 42.6666666666667A85.3333333333333 85.3333333333333 0 0 1 512 -42.6666666666666A85.3333333333333 85.3333333333333 0 0 1 597.3333333333333 42.6666666666667A85.3333333333333 85.3333333333333 0 0 1 585.750016 85.3333333333334L853.3333333333333 85.3333333333334L853.3333333333333 128L768 213.3333333333334L768 469.3333333333334C768 588.5951957333334 686.3708159999999 688.5506133333333 576 717L576 746.6666666666667C576 781.9946666666667 547.328 810.6666666666666 512 810.6666666666666zM252.0833322666667 807.1666688C150.8353322666667 729.1720021333333 85.3333333333333 607.0613333333333 85.3333333333333 469.3333333333334L170.6666666666667 469.3333333333334C170.6666666666667 579.4986666666666 223.1019989333333 677.2046677333333 304.0833322666666 739.5833344L252.0833322666667 807.1666688zM771.916672 807.1666688L719.916672 739.5833344C800.8980053333332 677.2046677333333 853.3333333333333 579.4986666666666 853.3333333333333 469.3333333333334L938.6666666666666 469.3333333333334C938.6666666666666 607.0613333333333 873.164672 729.1720021333333 771.916672 807.1666688zM512 640C606.1226666666666 640 682.6666666666666 563.456 682.6666666666666 469.3333333333334L682.6666666666666 213.3333333333334L682.6666666666666 178L690 170.6666666666668L334 170.6666666666668L341.3333333333333 178L341.3333333333333 213.3333333333334L341.3333333333333 469.3333333333334C341.3333333333333 563.456 417.8773333333334 640 512 640z" />
    <glyph glyph-name="note"
      unicode="&#xF10A;"
      horiz-adv-x="1024" d="M213.3333333333333 768C166.1866666666667 768 128 729.8133333333333 128 682.6666666666667L128 85.3333333333334C128 38.1866666666667 166.1866666666667 0 213.3333333333333 0L640 0L896 256L896 682.6666666666667C896 729.8133333333333 857.8133333333333 768 810.6666666666666 768L213.3333333333333 768zM213.3333333333333 682.6666666666667L810.6666666666666 682.6666666666667L810.6666666666666 298.6666666666668L597.3333333333333 298.6666666666668L597.3333333333333 85.3333333333334L213.3333333333333 85.3333333333334L213.3333333333333 682.6666666666667zM298.6666666666667 597.3333333333334L298.6666666666667 512L725.3333333333333 512L725.3333333333333 597.3333333333334L298.6666666666667 597.3333333333334zM298.6666666666667 426.6666666666667L298.6666666666667 341.3333333333334L512 341.3333333333334L512 426.6666666666667L298.6666666666667 426.6666666666667z" />
    <glyph glyph-name="notification"
      unicode="&#xF10B;"
      horiz-adv-x="1024" d="M512 810.6666666666666C476.672 810.6666666666666 448 781.9946666666667 448 746.6666666666667L448 717C337.6291669333333 688.5506133333333 256 588.5951957333334 256 469.3333333333334L256 213.3333333333334L170.6666666666667 128L170.6666666666667 85.3333333333334L438.166656 85.3333333333334A85.3333333333333 85.3333333333333 0 0 1 426.6666666666667 42.6666666666667A85.3333333333333 85.3333333333333 0 0 1 512 -42.6666666666666A85.3333333333333 85.3333333333333 0 0 1 597.3333333333333 42.6666666666667A85.3333333333333 85.3333333333333 0 0 1 585.750016 85.3333333333334L853.3333333333333 85.3333333333334L853.3333333333333 128L768 213.3333333333334L768 469.3333333333334C768 588.5951957333334 686.3708159999999 688.5506133333333 576 717L576 746.6666666666667C576 781.9946666666667 547.328 810.6666666666666 512 810.6666666666666zM512 640C606.1226666666666 640 682.6666666666666 563.456 682.6666666666666 469.3333333333334L682.6666666666666 213.3333333333334L682.6666666666666 178L690 170.6666666666668L334 170.6666666666668L341.3333333333333 178L341.3333333333333 213.3333333333334L341.3333333333333 469.3333333333334C341.3333333333333 563.456 417.8773333333334 640 512 640z" />
    <glyph glyph-name="alarm-clock"
      unicode="&#xF10C;"
      horiz-adv-x="1024" d="M268.5833344 831.9166677333334L72.5000021333333 667L127.4166656 601.7499989333334L323.4999978666667 766.6666666666667L268.5833344 831.9166677333334zM755.4166613333333 831.9166677333334L700.5000106666666 766.6666666666667L896.5833386666666 601.7499989333334L951.4999893333334 667L755.4166613333333 831.9166677333334zM512 725.3333333333334C299.904 725.3333333333334 128 553.4293333333334 128 341.3333333333334C128 129.2373333333334 299.904 -42.6666666666666 512 -42.6666666666666C724.096 -42.6666666666666 896 129.2373333333334 896 341.3333333333334C896 553.4293333333334 724.096 725.3333333333334 512 725.3333333333334zM512 640C676.9493333333332 640 810.6666666666666 506.2826666666667 810.6666666666666 341.3333333333334C810.6666666666666 176.384 676.9493333333332 42.6666666666667 512 42.6666666666667C347.0506666666667 42.6666666666667 213.3333333333333 176.384 213.3333333333333 341.3333333333334C213.3333333333333 506.2826666666667 347.0506666666667 640 512 640zM469.3333333333333 554.6666666666667L469.3333333333333 272.333312L663.5833173333333 175.1666773333334L701.750016 251.4999893333334L554.6666666666666 325.0000213333334L554.6666666666666 554.6666666666667L469.3333333333333 554.6666666666667z" />
    <glyph glyph-name="group-message"
      unicode="&#xF10D;"
      horiz-adv-x="1024" d="M128 768C81.3626538666667 768 42.6666666666667 729.3040128 42.6666666666667 682.6666666666667L42.6666666666667 128L128 128L128 682.6666666666667L810.6666666666666 682.6666666666667L810.6666666666666 768L128 768zM298.6666666666667 597.3333333333334C252.0293205333333 597.3333333333334 213.3333333333333 558.6373461333334 213.3333333333333 512L213.3333333333333 85.3333333333334C213.3333333333333 38.6959786666666 252.0293205333333 0 298.6666666666667 0L896 0C942.6373546666666 0 981.3333333333331 38.6959786666666 981.3333333333331 85.3333333333334L981.3333333333331 512C981.3333333333331 558.6373461333334 942.6373546666666 597.3333333333334 896 597.3333333333334L298.6666666666667 597.3333333333334zM298.6666666666667 512L896 512L896 485.2500010666667L597.3333333333333 298.6666666666668L298.6666666666667 485.2500010666667L298.6666666666667 512zM298.6666666666667 399.916672L597.3333333333333 213.3333333333334L896 399.916672L896 85.3333333333334L298.6666666666667 85.3333333333334L298.6666666666667 399.916672z" />
    <glyph glyph-name="new-message"
      unicode="&#xF10E;"
      horiz-adv-x="1024" d="M128 725.3333333333334C80.8533333333333 725.3333333333334 42.6666666666667 687.1466666666668 42.6666666666667 640L42.6666666666667 128C42.6666666666667 80.8533333333334 80.8533333333333 42.6666666666667 128 42.6666666666667L597.3333333333333 42.6666666666667L597.3333333333333 128L128 128L128 554.5833344L469.3333333333333 341.3333333333334L810.6666666666666 554.5833344L810.6666666666666 341.3333333333334L896 341.3333333333334L896 640C896 687.1466666666668 857.8133333333333 725.3333333333334 810.6666666666666 725.3333333333334L128 725.3333333333334zM128 640L810.6666666666666 640L810.6666666666666 639.9166677333334L469.3333333333333 426.6666666666667L128 639.9166677333334L128 640zM810.6666666666666 256L810.6666666666666 128L682.6666666666666 128L682.6666666666666 42.6666666666667L810.6666666666666 42.6666666666667L810.6666666666666 -85.3333333333333L896 -85.3333333333333L896 42.6666666666667L1024 42.6666666666667L1024 128L896 128L896 256L810.6666666666666 256z" />
    <glyph glyph-name="envelope"
      unicode="&#xF10F;"
      horiz-adv-x="1024" d="M170.6666666666667 725.3333333333334C123.6053333333333 725.3333333333334 85.3333333333333 687.0613333333333 85.3333333333333 640L85.3333333333333 128C85.3333333333333 80.9386666666667 123.6053333333333 42.6666666666667 170.6666666666667 42.6666666666667L853.3333333333333 42.6666666666667C900.3946666666667 42.6666666666667 938.6666666666666 80.9386666666667 938.6666666666666 128L938.6666666666666 640C938.6666666666666 687.0613333333333 900.3946666666667 725.3333333333334 853.3333333333333 725.3333333333334L170.6666666666667 725.3333333333334zM170.6666666666667 640L853.3333333333333 640L853.3333333333333 639.7499989333334L512 426.6666666666667L170.6666666666667 639.8333354666667L170.6666666666667 640zM170.6666666666667 554.5000021333334L512 341.3333333333334L853.3333333333333 554.4166656L853.4166613333333 128L170.6666666666667 128L170.6666666666667 554.5000021333334z" />
    <glyph glyph-name="shared-document"
      unicode="&#xF110;"
      horiz-adv-x="1024" d="M256 810.6666666666666C208.9386666666667 810.6666666666666 170.6666666666667 772.3946666666667 170.6666666666667 725.3333333333334L170.6666666666667 42.6666666666667C170.6666666666667 -4.3946666666667 208.9386666666667 -42.6666666666666 256 -42.6666666666666L558.5833386666666 -42.6666666666666C564.8980053333332 -12.2026666666667 579.1406506666666 17.1093333333333 601.5833173333333 42.6666666666667L256 42.6666666666667L256 725.3333333333334L554.6666666666666 725.3333333333334L554.6666666666666 512L768 512L768 372.2499840000001C788.096 379.3753173333335 809.4293333333333 384 832 384C839.2959999999999 384 846.2506666666666 382.6013440000001 853.3333333333333 381.833344L853.3333333333333 554.6666666666667L597.3333333333333 810.6666666666666L256 810.6666666666666zM832 298.6666666666668A106.6666666666667 106.6666666666667 0 0 1 725.3333333333333 192A106.6666666666667 106.6666666666667 0 0 1 832 85.3333333333334A106.6666666666667 106.6666666666667 0 0 1 938.6666666666666 192A106.6666666666667 106.6666666666667 0 0 1 832 298.6666666666668zM832 42.6666666666667C720.7253333333333 42.6666666666667 640 -0.8026453333333 640 -80.333312L640 -128L1024 -128L1024 -80.333312C1024 -0.8026453333333 943.2746666666666 42.6666666666667 832 42.6666666666667z" />
    <glyph glyph-name="check-document"
      unicode="&#xF111;"
      horiz-adv-x="1024" d="M256 810.6666666666666C208.9386666666667 810.6666666666666 170.6666666666667 772.3946666666667 170.6666666666667 725.3333333333334L170.6666666666667 42.6666666666667C170.6666666666667 -4.3946666666667 208.9386666666667 -42.6666666666666 256 -42.6666666666666L541.1666773333333 -42.6666666666666C528.537344 -16.1279999999999 519.7259946666666 12.5013333333334 515.4166613333333 42.6666666666667L256 42.6666666666667L256 725.3333333333334L554.6666666666666 725.3333333333334L554.6666666666666 512L768 512L768 380.6666666666668C781.952 382.6720000000001 796.16 384.0833280000001 810.6666666666666 384.0833280000001C825.1733333333333 384.0833280000001 839.3813333333333 382.6720000000001 853.3333333333333 380.6666666666668L853.3333333333333 554.6666666666667L597.3333333333333 810.6666666666666L256 810.6666666666666zM810.6666666666666 298.6666666666668C692.864 298.6666666666668 597.3333333333333 203.136 597.3333333333333 85.3333333333334C597.3333333333333 -32.4693333333332 692.864 -128 810.6666666666666 -128C928.4693333333332 -128 1024 -32.4693333333332 1024 85.3333333333334C1024 203.136 928.4693333333332 298.6666666666668 810.6666666666666 298.6666666666668zM898.166656 185.5833173333334L957.8333439999998 125.833344L789.3333333333333 -42.6666666666666L663.4999893333334 83.1666773333334L723.1666773333333 142.9166506666668L789.3333333333333 76.8333226666667L898.166656 185.5833173333334z" />
    <glyph glyph-name="submit-document"
      unicode="&#xF113;"
      horiz-adv-x="1024" d="M256 810.6666666666666C209.3117994666667 810.6666666666666 170.6666666666667 772.0215338666667 170.6666666666667 725.3333333333334L170.6666666666667 42.6666666666667C170.6666666666667 -4.0215466666666 209.3117994666667 -42.6666666666666 256 -42.6666666666666L597.3333333333333 -42.6666666666666L597.3333333333333 42.6666666666667L256 42.6666666666667L256 725.3333333333334L554.6666666666666 725.3333333333334L554.6666666666666 512L768 512L768 298.6666666666668L853.3333333333333 298.6666666666668L853.3333333333333 554.6666666666667L597.3333333333333 810.6666666666666L256 810.6666666666666zM341.3333333333333 384L341.3333333333333 298.6666666666668L682.6666666666666 298.6666666666668L682.6666666666666 384L341.3333333333333 384zM853.3333333333333 256L853.3333333333333 128L682.6666666666666 128L682.6666666666666 42.6666666666667L853.3333333333333 42.6666666666667L853.3333333333333 -85.3333333333333L1024 85.3333333333334L853.3333333333333 256zM341.3333333333333 213.3333333333334L341.3333333333333 128L597.3333333333333 128L597.3333333333333 213.3333333333334L341.3333333333333 213.3333333333334z" />
    <glyph glyph-name="add-file"
      unicode="&#xF114;"
      horiz-adv-x="1024" d="M256 810.6666666666666C209.0666666666667 810.6666666666666 170.6666666666667 772.2666666666667 170.6666666666667 725.3333333333334L170.6666666666667 42.6666666666667C170.6666666666667 -4.2666666666667 209.0666666666667 -42.6666666666666 256 -42.6666666666666L768 -42.6666666666666C814.9333333333334 -42.6666666666666 853.3333333333333 -4.2666666666667 853.3333333333333 42.6666666666667L853.3333333333333 554.6666666666667L597.3333333333333 810.6666666666666L256 810.6666666666666zM256 725.3333333333334L562 725.3333333333334L768 519.3333333333334L768 42.6666666666667L256 42.6666666666667L256 725.3333333333334zM469.3333333333333 512L469.3333333333333 384L341.3333333333333 384L341.3333333333333 298.6666666666668L469.3333333333333 298.6666666666668L469.3333333333333 170.6666666666668L554.6666666666666 170.6666666666668L554.6666666666666 298.6666666666668L682.6666666666666 298.6666666666668L682.6666666666666 384L554.6666666666666 384L554.6666666666666 512L469.3333333333333 512z" />
    <glyph glyph-name="check-file"
      unicode="&#xF115;"
      horiz-adv-x="1024" d="M256 810.6666666666666C208.9386666666667 810.6666666666666 170.6666666666667 772.3946666666667 170.6666666666667 725.3333333333334L170.6666666666667 42.6666666666667C170.6666666666667 -4.3946666666667 208.9386666666667 -42.6666666666666 256 -42.6666666666666L472.6666666666666 -42.6666666666666C457.3493333333333 -16.256 445.641344 12.3733333333333 437.833344 42.6666666666667L256 42.6666666666667L256 725.3333333333334L554.6666666666666 725.3333333333334L554.6666666666666 512L768 512L768 469.3333333333334C797.5253333333333 469.3333333333334 826.0266666666666 465.206656 853.3333333333333 458.166656L853.3333333333333 554.6666666666667L597.3333333333333 810.6666666666666L256 810.6666666666666zM768 384C627.1204693333333 384 512 268.8795306666667 512 128C512 -12.8795306666666 627.1204693333333 -128 768 -128C908.8795306666666 -128 1024 -12.8795306666666 1024 128C1024 268.8795306666667 908.8795306666666 384 768 384zM768 298.6666666666668C810.8316586666666 298.6666666666668 849.3077759999999 282.579712 879.1666773333333 256.8333226666668L768 145.6666453333335L712.8333226666666 200.8333226666667L652.5000106666666 140.5000106666667L768 25.0000213333333L928.249984 185.2500053333333C934.6084693333333 167.3002666666666 938.6666666666666 148.22144 938.6666666666666 128C938.6666666666666 33.238016 862.761984 -42.6666666666666 768 -42.6666666666666C673.238016 -42.6666666666666 597.3333333333333 33.238016 597.3333333333333 128C597.3333333333333 222.761984 673.238016 298.6666666666668 768 298.6666666666668z" />
    <glyph glyph-name="duplicate"
      unicode="&#xF116;"
      horiz-adv-x="1024" d="M256 810.6666666666666L256 725.3333333333334L853.3333333333333 725.3333333333334L853.3333333333333 128L938.6666666666666 128L938.6666666666666 725.3333333333334C938.6666666666666 772.48 900.48 810.6666666666666 853.3333333333333 810.6666666666666L256 810.6666666666666zM170.6666666666667 640C123.52 640 85.3333333333333 601.8133333333334 85.3333333333333 554.6666666666667L85.3333333333333 42.6666666666667C85.3333333333333 -4.48 123.52 -42.6666666666666 170.6666666666667 -42.6666666666666L682.6666666666666 -42.6666666666666C729.8133333333333 -42.6666666666666 768 -4.48 768 42.6666666666667L768 554.6666666666667C768 601.8133333333334 729.8133333333333 640 682.6666666666666 640L170.6666666666667 640zM170.6666666666667 554.6666666666667L682.6666666666666 554.6666666666667L682.6666666666666 42.6666666666667L170.6666666666667 42.6666666666667L170.6666666666667 554.6666666666667zM384 469.3333333333334L384 341.3333333333334L256 341.3333333333334L256 256L384 256L384 128L469.3333333333333 128L469.3333333333333 256L597.3333333333333 256L597.3333333333333 341.3333333333334L469.3333333333333 341.3333333333334L469.3333333333333 469.3333333333334L384 469.3333333333334z" />
    <glyph glyph-name="versions"
      unicode="&#xF117;"
      horiz-adv-x="1024" d="M469.3333333333333 768C422.6959872 768 384 729.3040128 384 682.6666666666667L384 85.3333333333334C384 38.6959786666666 422.6959872 0 469.3333333333333 0L810.6666666666666 0C857.3040213333334 0 896 38.6959786666666 896 85.3333333333334L896 682.6666666666667C896 729.3040128 857.3040213333334 768 810.6666666666666 768L469.3333333333333 768zM341.3333333333333 725.3333333333334C294.6959872 725.3333333333334 256 686.6373461333334 256 640L256 128C256 81.3626453333334 294.6959872 42.6666666666667 341.3333333333333 42.6666666666667L341.3333333333333 128L341.3333333333333 640L341.3333333333333 725.3333333333334zM469.3333333333333 682.6666666666667L810.6666666666666 682.6666666666667L810.6666666666666 85.3333333333334L469.3333333333333 85.3333333333334L469.3333333333333 682.6666666666667zM213.3333333333333 640C166.6959872 640 128 601.3040128 128 554.6666666666667L128 213.3333333333334C128 166.6959786666666 166.6959872 128 213.3333333333333 128L213.3333333333333 213.3333333333334L213.3333333333333 554.6666666666667L213.3333333333333 640z" />
    <glyph glyph-name="filing-cabinet"
      unicode="&#xF118;"
      horiz-adv-x="1024" d="M213.3333333333333 810.6666666666666C166.6959872 810.6666666666666 128 771.9706794666666 128 725.3333333333334L128 42.6666666666667C128 -3.970688 166.6959872 -42.6666666666666 213.3333333333333 -42.6666666666666L810.6666666666666 -42.6666666666666C857.3040213333334 -42.6666666666666 896 -3.970688 896 42.6666666666667L896 725.3333333333334C896 771.9706794666666 857.3040213333334 810.6666666666666 810.6666666666666 810.6666666666666L213.3333333333333 810.6666666666666zM213.3333333333333 725.3333333333334L810.6666666666666 725.3333333333334L810.6666666666666 554.6666666666667L213.3333333333333 554.6666666666667L213.3333333333333 725.3333333333334zM426.6666666666667 682.6666666666667L426.6666666666667 597.3333333333334L597.3333333333333 597.3333333333334L597.3333333333333 682.6666666666667L426.6666666666667 682.6666666666667zM213.3333333333333 469.3333333333334L810.6666666666666 469.3333333333334L810.6666666666666 298.6666666666668L213.3333333333333 298.6666666666668L213.3333333333333 469.3333333333334zM426.6666666666667 426.6666666666667L426.6666666666667 341.3333333333334L597.3333333333333 341.3333333333334L597.3333333333333 426.6666666666667L426.6666666666667 426.6666666666667zM213.3333333333333 213.3333333333334L810.6666666666666 213.3333333333334L810.6666666666666 42.6666666666667L213.3333333333333 42.6666666666667L213.3333333333333 213.3333333333334zM426.6666666666667 170.6666666666668L426.6666666666667 85.3333333333334L597.3333333333333 85.3333333333334L597.3333333333333 170.6666666666668L426.6666666666667 170.6666666666668z" />
    <glyph glyph-name="downloads"
      unicode="&#xF119;"
      horiz-adv-x="1024" d="M245.3333333333333 768A42.6709333333333 42.6709333333333 0 0 1 208.5000021333333 746.8333312L133.8333354666667 618.8333312A42.6709333333333 42.6709333333333 0 0 1 128 597.3333333333334L128 85.3333333333334C128 38.6959786666666 166.6959872 0 213.3333333333333 0L810.6666666666666 0C857.3040213333334 0 896 38.6959786666666 896 85.3333333333334L896 597.3333333333334A42.6709333333333 42.6709333333333 0 0 1 890.166656 618.8333312L815.4999893333334 746.8333312A42.6709333333333 42.6709333333333 0 0 1 778.6666666666666 768L245.3333333333333 768zM269.8333354666667 682.6666666666667L754.166656 682.6666666666667L803.916672 597.3333333333334L220.0833322666667 597.3333333333334L269.8333354666667 682.6666666666667zM213.3333333333333 512L810.6666666666666 512L810.6666666666666 85.3333333333334L213.3333333333333 85.3333333333334L213.3333333333333 512zM469.3333333333333 426.6666666666667L469.3333333333333 298.6666666666668L341.3333333333333 298.6666666666668L512 128L682.6666666666666 298.6666666666668L554.6666666666666 298.6666666666668L554.6666666666666 426.6666666666667L469.3333333333333 426.6666666666667z" />
    <glyph glyph-name="delete-file"
      unicode="&#xF11A;"
      horiz-adv-x="1024" d="M256 810.6666666666666C208.9386666666667 810.6666666666666 170.6666666666667 772.3946666666667 170.6666666666667 725.3333333333334L170.6666666666667 42.6666666666667C170.6666666666667 -4.3946666666667 208.9386666666667 -42.6666666666666 256 -42.6666666666666L547.4999893333334 -42.6666666666666L582.4166826666667 -7.5833173333333L630.5000106666666 41.0000213333333L628.8333226666666 42.6666666666667L256 42.6666666666667L256 725.3333333333334L554.6666666666666 725.3333333333334L554.6666666666666 512L768 512L768 265.4166613333334L810.6666666666666 222.4166826666667L853.3333333333333 265.4166613333334L853.3333333333333 554.6666666666667L597.3333333333333 810.6666666666666L256 810.6666666666666zM699.916672 212.9166506666668L640 152.5833386666667L750.7499946666667 41.0000213333333L642.9999786666666 -67.6666879999999L702.8333226666666 -128L810.6666666666666 -19.3333333333333L918.5000106666666 -128L978.3333546666667 -67.6666879999999L870.5833386666666 41.0000213333333L981.3333333333331 152.5833386666667L921.4166613333334 212.9166506666668L810.6666666666666 101.3333333333334L699.916672 212.9166506666668z" />
    <glyph glyph-name="opened-folder"
      unicode="&#xF11B;"
      horiz-adv-x="1024" d="M853.3333333333333 640H512L426.6666666666667 725.3333333333334H170.6666666666667C123.7333333333333 725.3333333333334 85.3333333333333 686.9333333333334 85.3333333333333 640V128C85.3333333333333 81.0666666666666 123.7333333333333 42.6666666666667 170.6666666666667 42.6666666666667H853.3333333333333C900.2666666666667 42.6666666666667 938.6666666666666 81.0666666666666 938.6666666666666 128V554.6666666666667C938.6666666666666 601.6 900.2666666666667 640 853.3333333333333 640zM853.3333333333333 128H170.6666666666667V554.6666666666667H853.3333333333333V128z" />
    <glyph glyph-name="download-from-the-cloud"
      unicode="&#xF11C;"
      horiz-adv-x="1024" d="M512 725.3333333333334C412.3950250666667 725.3333333333334 328.5595008 672.0215210666667 274.3333333333333 596.7499989333334C123.1128405333333 595.0340266666667 0 471.6117632 0 320C0 167.327232 124.6605781333333 42.6666666666667 277.3333333333333 42.6666666666667L789.3333333333333 42.6666666666667C918.4246186666666 42.6666666666667 1024 148.2420480000001 1024 277.3333333333334C1024 404.922112 920.6201173333334 508.7486848 793.5833173333333 511.1666688C756.4773546666667 633.959488 646.4894293333333 725.3333333333334 512 725.3333333333334zM512 640C618.8598186666666 640 706.3031466666666 562.112384 722.4166826666666 460.166656L728.9166506666667 419.1666773333334L770.0833279999999 424.5000106666667C779.6130986666667 425.7408426666667 785.7025279999999 426.6666666666667 789.3333333333333 426.6666666666667C872.2953813333334 426.6666666666667 938.6666666666666 360.2953813333334 938.6666666666666 277.3333333333334C938.6666666666666 194.3712853333334 872.2953813333334 128 789.3333333333333 128L277.3333333333333 128C170.7634218666667 128 85.3333333333333 213.4301013333334 85.3333333333333 320C85.3333333333333 426.5698986666667 170.7634218666667 512 277.3333333333333 512C278.826368 512 282.3022592 511.7017642666667 288 511.4166656L314.0833322666666 510.0833322666667L327.0833322666666 532.7499989333334C363.9513088 596.8063274666667 432.5495893333333 640 512 640zM469.3333333333333 512L469.3333333333333 341.3333333333334L341.3333333333333 341.3333333333334L512 170.6666666666668L682.6666666666666 341.3333333333334L554.6666666666666 341.3333333333334L554.6666666666666 512L469.3333333333333 512z" />
    <glyph glyph-name="download-from-cloud"
      unicode="&#xF11D;"
      horiz-adv-x="1024" d="M512 810.6666666666666C414.2506666666667 810.6666666666666 322.5946666666667 762.1159978666667 267 682.5000021333333C118.8186666666667 677.0386645333333 0 554.7946666666667 0 405.3333333333334C0 252.4160000000001 124.416 128 277.3333333333333 128L384 128L384 213.3333333333334L277.3333333333333 213.3333333333334C171.4773333333333 213.3333333333334 85.3333333333333 299.4773333333334 85.3333333333333 405.3333333333334C85.3333333333333 511.1893333333334 171.4773333333333 597.3333333333334 277.3333333333333 597.3333333333334L314 595.3333333333334L327.1666688 618.0833322666667C365.2253312000001 684.2593322666667 436.0533333333334 725.3333333333334 512 725.3333333333334C617.472 725.3333333333334 705.9046826666665 649.6920021333333 722.4166826666666 545.4999978666667L728.8333226666666 504.5000021333334L775.750016 510.6666666666667C780.230016 511.264 784.6826666666666 512 789.3333333333333 512C871.68 512 938.6666666666666 445.0133333333333 938.6666666666666 362.6666666666668C938.6666666666666 280.3200000000001 871.68 213.3333333333334 789.3333333333333 213.3333333333334L640 213.3333333333334L640 128L789.3333333333333 128C918.6986666666666 128 1024 233.2586666666668 1024 362.6666666666668C1024 489.1306666666667 923.4379946666666 592.5586688000001 798.0833279999999 597.1666688C761.1339946666667 722.9479978666667 646.3573333333333 810.6666666666666 512 810.6666666666666zM469.3333333333333 384L469.3333333333333 42.6666666666667L341.3333333333333 42.6666666666667L512 -128L682.6666666666666 42.6666666666667L554.6666666666666 42.6666666666667L554.6666666666666 384L469.3333333333333 384z" />
    <glyph glyph-name="downloading-updates"
      unicode="&#xF11E;"
      horiz-adv-x="1024" d="M469.3333333333333 810.6666666666666L469.3333333333333 725.3333333333334L554.6666666666666 725.3333333333334L554.6666666666666 810.6666666666666L469.3333333333333 810.6666666666666zM469.3333333333333 640L469.3333333333333 273.6666453333334L328.8333312 414.1666560000001L268.5000021333333 353.833344L512 110.3333546666667L755.4999893333334 353.833344L695.1666773333333 414.1666560000001L554.6666666666666 273.6666453333334L554.6666666666666 640L469.3333333333333 640zM85.3333333333333 170.6666666666668L85.3333333333333 42.6666666666667C85.3333333333333 -3.970688 124.0293205333333 -42.6666666666666 170.6666666666667 -42.6666666666666L853.3333333333333 -42.6666666666666C899.970688 -42.6666666666666 938.6666666666666 -3.970688 938.6666666666666 42.6666666666667L938.6666666666666 170.6666666666668L853.3333333333333 170.6666666666668L853.3333333333333 42.6666666666667L170.6666666666667 42.6666666666667L170.6666666666667 170.6666666666668L85.3333333333333 170.6666666666668z" />
    <glyph glyph-name="pdf"
      unicode="&#xF11F;"
      horiz-adv-x="1024" d="M256 810.6666666666666C209.3117994666667 810.6666666666666 170.6666666666667 772.0215338666667 170.6666666666667 725.3333333333334L170.6666666666667 512C123.52 512 85.3333333333333 473.8133333333334 85.3333333333333 426.6666666666667L85.3333333333333 213.3333333333334C85.3333333333333 166.1866666666667 123.52 128 170.6666666666667 128L170.6666666666667 42.6666666666667C170.6666666666667 -4.0215466666666 209.3117994666667 -42.6666666666666 256 -42.6666666666666L768 -42.6666666666666C814.6882133333334 -42.6666666666666 853.3333333333333 -4.0215466666666 853.3333333333333 42.6666666666667L853.3333333333333 597.3333333333334L640 810.6666666666666L256 810.6666666666666zM256 725.3333333333334L597.3333333333333 725.3333333333334L597.3333333333333 554.6666666666667L768 554.6666666666667L768 512L256 512L256 725.3333333333334zM170.6666666666667 426.6666666666667L234.6666666666667 426.6666666666667C269.9946666666667 426.6666666666667 298.6666666666667 397.9946666666667 298.6666666666667 362.6666666666668C298.6666666666667 327.3386666666668 269.9946666666667 298.6666666666668 234.6666666666667 298.6666666666668L213.3333333333333 298.6666666666668L213.3333333333333 213.3333333333334L170.6666666666667 213.3333333333334L170.6666666666667 426.6666666666667zM554.6666666666666 426.6666666666667L682.6666666666666 426.6666666666667L682.6666666666666 384L597.3333333333333 384L597.3333333333333 341.3333333333334L665.5833173333333 341.3333333333334L665.5833173333333 298.6666666666668L597.3333333333333 298.6666666666668L597.3333333333333 213.3333333333334L554.6666666666666 213.3333333333334L554.6666666666666 426.6666666666667zM341.3333333333333 425.6666453333334L410.8333312 425.6666453333334C478.3319893333333 425.6666453333334 512 385.0706773333333 512 335.833344L512 302.9166506666667C512 253.0819840000001 478.2606506666667 213.3333333333334 410.2500010666667 213.3333333333334L341.3333333333333 213.3333333333334L341.3333333333333 425.6666453333334zM213.3333333333333 384L213.3333333333333 341.3333333333334L234.6666666666667 341.3333333333334C246.4426666666667 341.3333333333334 256 350.8906666666667 256 362.6666666666668C256 374.4426666666667 246.4426666666667 384 234.6666666666667 384L213.3333333333333 384zM384 382.9999786666667L384 256L410.2500010666667 256C437.2153173333334 256 469.3333333333333 264.1753173333334 469.3333333333333 302.9166506666667L469.3333333333333 335.833344C469.3333333333333 374.8306773333334 437.542656 382.9999786666667 410.8333312 382.9999786666667L384 382.9999786666667zM256 128L768 128L768 42.6666666666667L256 42.6666666666667L256 128z" />
    <glyph glyph-name="down-arrow"
      unicode="&#xF120;"
      horiz-adv-x="1024" d="M469.3333333333333 768L469.3333333333333 167.666688L274.3333333333333 362.6666666666668L210.3333333333333 298.6666666666668L512 -2.9999786666667L813.6666453333333 298.6666666666668L749.6666453333333 362.6666666666668L554.6666666666666 167.666688L554.6666666666666 768L469.3333333333333 768z" />
    <glyph glyph-name="loader"
      unicode="&#xF121;"
      horiz-adv-x="1024" d="M490.6666666666666 768A64 64 0 0 1 426.6666666666667 704A64 64 0 0 1 490.6666666666666 640A64 64 0 0 1 554.6666666666666 704A64 64 0 0 1 490.6666666666666 768zM704 725.3333333333334A64 64 0 0 1 640 661.3333333333334A64 64 0 0 1 704 597.3333333333334A64 64 0 0 1 768 661.3333333333334A64 64 0 0 1 704 725.3333333333334zM256 682.6666666666667A42.6666666666667 42.6666666666667 0 0 1 213.3333333333333 640A42.6666666666667 42.6666666666667 0 0 1 256 597.3333333333334A42.6666666666667 42.6666666666667 0 0 1 298.6666666666667 640A42.6666666666667 42.6666666666667 0 0 1 256 682.6666666666667zM832 512A64 64 0 0 1 768 448A64 64 0 0 1 832 384A64 64 0 0 1 896 448A64 64 0 0 1 832 512zM170.6666666666667 469.3333333333334A42.6666666666667 42.6666666666667 0 0 1 128 426.6666666666667A42.6666666666667 42.6666666666667 0 0 1 170.6666666666667 384A42.6666666666667 42.6666666666667 0 0 1 213.3333333333333 426.6666666666667A42.6666666666667 42.6666666666667 0 0 1 170.6666666666667 469.3333333333334zM768 298.6666666666668A85.3333333333333 85.3333333333333 0 0 1 682.6666666666666 213.3333333333334A85.3333333333333 85.3333333333333 0 0 1 768 128A85.3333333333333 85.3333333333333 0 0 1 853.3333333333333 213.3333333333334A85.3333333333333 85.3333333333333 0 0 1 768 298.6666666666668zM256 256A42.6666666666667 42.6666666666667 0 0 1 213.3333333333333 213.3333333333334A42.6666666666667 42.6666666666667 0 0 1 256 170.6666666666668A42.6666666666667 42.6666666666667 0 0 1 298.6666666666667 213.3333333333334A42.6666666666667 42.6666666666667 0 0 1 256 256zM490.6666666666666 213.3333333333334A106.6666666666667 106.6666666666667 0 0 1 384 106.6666666666667A106.6666666666667 106.6666666666667 0 0 1 490.6666666666666 0A106.6666666666667 106.6666666666667 0 0 1 597.3333333333333 106.6666666666667A106.6666666666667 106.6666666666667 0 0 1 490.6666666666666 213.3333333333334z" />
    <glyph glyph-name="in-progress"
      unicode="&#xF122;"
      horiz-adv-x="1024" d="M469.3333333333333 808.5000021333333C383.6586666666667 799.9666645333333 305.3986688 765.9213354666667 242.1666645333334 714.1666645333333L303 653.3333333333334C350.1893333333333 690.0266666666666 407.1253333333333 714.6086656 469.3333333333333 722.4166656L469.3333333333333 808.5000021333333zM554.6666666666666 808.5000021333333L554.6666666666666 722.3333333333334C722.7733333333333 701.2133333333334 853.3333333333333 557.6553344 853.3333333333333 383.9166720000001C853.3333333333333 210.1780053333334 722.7733333333333 66.7033173333333 554.6666666666666 45.5833173333334L554.6666666666666 -40.5833386666666C769.9626666666666 -19.0793386666666 938.6666666666666 163.0740053333334 938.6666666666666 383.9166720000001C938.6666666666666 604.7593344 769.9626666666666 787.0386688 554.6666666666666 808.5000021333333zM181.8333354666667 653.8333354666667C130.0360021333334 590.6013312 96.0333312 512.3413333333333 87.4999978666667 426.6666666666667L173.5833344 426.6666666666667C181.3913344 488.8746666666667 205.9733333333333 545.8106666666667 242.6666666666667 593L181.8333354666667 653.8333354666667zM695.1666773333333 542.1666645333333L469.3333333333333 316.333312L371.4999978666666 414.1666560000001L311.1666688 353.833344L469.3333333333333 195.666688L755.4999893333334 481.8333354666667L695.1666773333333 542.1666645333333zM87.4999978666667 341.4166613333334C96.0333312 255.6993280000001 130.0360021333334 177.3986560000001 181.8333354666667 114.1666560000001L242.7499989333333 175.0833493333333C206.0566656 222.2726826666667 181.4746666666667 279.2086613333334 173.6666666666667 341.4166613333334L87.4999978666667 341.4166613333334zM303 114.6666666666668L242.1666645333334 53.833344C305.3986688 2.0786773333333 383.5753344 -31.9666773333333 469.2500053333333 -40.5000106666666L469.2500053333333 45.5833173333334C407.0740394666667 53.4026666666667 350.1685589333333 77.989504 303 114.6666666666668z" />
    <glyph glyph-name="search"
      unicode="&#xF123;"
      horiz-adv-x="1024" d="M384 810.6666666666666C219.5563264 810.6666666666666 85.3333333333333 676.4436736 85.3333333333333 512C85.3333333333333 347.5563093333334 219.5563264 213.3333333333334 384 213.3333333333334C458.581248 213.3333333333334 526.720384 241.150976 579.1666773333333 286.6666666666668L597.3333333333333 268.5000106666667L597.3333333333333 213.3333333333334L853.3333333333333 -42.6666666666666L938.6666666666666 42.6666666666667L682.6666666666666 298.6666666666668L627.4999893333334 298.6666666666668L609.3333333333333 316.8333226666668C654.849024 369.2796160000001 682.6666666666666 437.418752 682.6666666666666 512C682.6666666666666 676.4436736 548.4436906666666 810.6666666666666 384 810.6666666666666zM384 725.3333333333334C502.3261013333333 725.3333333333334 597.3333333333333 630.3261184 597.3333333333333 512C597.3333333333333 393.6738986666667 502.3261013333333 298.6666666666668 384 298.6666666666668C265.6738816 298.6666666666668 170.6666666666667 393.6738986666667 170.6666666666667 512C170.6666666666667 630.3261184 265.6738816 725.3333333333334 384 725.3333333333334z" />
    <glyph glyph-name="search-2"
      unicode="&#xF124;"
      horiz-adv-x="1024" d="M608 800C431.624992 800 288 656.375008 288 480C288 403.375008 314.875008 333.124992 360 278L105 23L151 -23L406 232C461.124992 186.875008 531.375008 160 608 160C784.375008 160 928 303.624992 928 480C928 656.375008 784.375008 800 608 800zM608 736C749.750016 736 864 621.749984 864 480C864 338.2499840000001 749.750016 224 608 224C466.250016 224 352 338.2499840000001 352 480C352 621.749984 466.250016 736 608 736z" />
    <glyph glyph-name="settings"
      unicode="&#xF125;"
      horiz-adv-x="1024" d="M412.4166656 810.6666666666666L391.4999978666666 703C356.3355178666667 689.7385130666667 324.0442112 671.1496234666668 295.7499989333333 647.9166677333334L192.3333333333333 683.5833344L92.6666666666667 511.0833322666667L175.4999978666667 439.0833493333334C172.3156821333333 419.5323733333334 170.6666666666667 401.4146133333334 170.6666666666667 384C170.6666666666667 366.5592320000001 172.3651029333333 348.4746240000001 175.4999978666667 328.9166506666667L175.4999978666667 328.8333226666668L92.6666666666667 256.8333226666668L192.3333333333333 84.4166826666667L295.6666666666667 120C323.9635242666667 96.7543893333334 356.3278762666667 78.2691413333334 391.4999978666666 65.0000213333333L412.4166656 -42.6666666666666L611.5833173333333 -42.6666666666666L632.5000106666666 65.0000213333333C667.6874666666666 78.2701653333334 699.942528 96.8290133333334 728.249984 120.0833280000001L831.6666879999999 84.4166826666667L931.2500053333334 256.8333226666668L848.5000106666666 328.9166506666667C851.6843093333333 348.4676266666668 853.3333333333333 366.5853866666667 853.3333333333333 384C853.3333333333333 401.3885013333334 851.67488 419.4827093333334 848.5000106666666 438.9999786666667L848.5000106666666 439.0833493333334L931.3333333333331 511.1666688L831.6666879999999 683.5833344L728.333312 648C700.0365226666665 671.2455978666667 667.6721066666667 689.7308714666667 632.5000106666666 703L611.5833173333333 810.6666666666666L412.4166656 810.6666666666666zM482.7499946666667 725.3333333333334L541.2500053333333 725.3333333333334L557.8333439999999 640L602.3333546666667 623.1666688C629.156352 613.05728 653.2553386666666 599.1784704 674.166656 582L710.9999786666667 551.8333354666668L793.0000213333333 580L822.249984 529.4166656L756.7499946666667 472.4166656L764.249984 425.4999893333334L764.249984 425.4166613333334C766.859008 409.4193066666667 768 395.999232 768 384C768 372.0007680000001 766.8590506666666 358.5826986666667 764.249984 342.5833386666667L756.6666666666666 295.666688L822.166656 238.6666666666668L792.9166506666667 188L710.9999786666667 216.2499840000001L674.0833279999999 186C653.1720106666667 168.8215466666668 629.156352 154.94272 602.3333546666667 144.8333226666667L602.2499839999999 144.8333226666667L557.750016 128L541.1666773333333 42.6666666666667L482.7499946666667 42.6666666666667L466.166656 128L421.6666666666667 144.8333226666667C394.8435925333333 154.94272 370.7446698666667 168.8215466666668 349.8333354666667 186L313 216.1666560000001L231 188L201.7499989333333 238.5833386666667L267.3333333333333 295.666688L259.7499989333333 342.4166826666667L259.7499989333333 342.5000106666667C257.1783808 358.566912 256 372.0246186666667 256 384C256 395.999232 257.140992 409.4173013333334 259.7499989333333 425.4166613333334L267.3333333333333 472.3333333333334L201.7499989333333 529.3333333333334L231 580L313 551.7499989333334L349.8333354666667 582C370.7446698666667 599.1784704 394.8435925333333 613.0572757333334 421.6666666666667 623.1666688L466.166656 640L482.7499946666667 725.3333333333334zM512 554.6666666666667C418.2816768 554.6666666666667 341.3333333333333 477.7183232 341.3333333333333 384C341.3333333333333 290.2816853333334 418.2816768 213.3333333333334 512 213.3333333333334C605.7183146666666 213.3333333333334 682.6666666666666 290.2816853333334 682.6666666666666 384C682.6666666666666 477.7183232 605.7183146666666 554.6666666666667 512 554.6666666666667zM512 469.3333333333334C559.4230186666666 469.3333333333334 597.3333333333333 431.4230186666668 597.3333333333333 384C597.3333333333333 336.5769813333334 559.4230186666666 298.6666666666668 512 298.6666666666668C464.5769813333333 298.6666666666668 426.6666666666667 336.5769813333334 426.6666666666667 384C426.6666666666667 431.4230186666668 464.5769813333333 469.3333333333334 512 469.3333333333334z" />
    <glyph glyph-name="file-settings"
      unicode="&#xF126;"
      horiz-adv-x="1024" d="M256 810.6666666666666C208.9386666666667 810.6666666666666 170.6666666666667 772.3946666666667 170.6666666666667 725.3333333333334L170.6666666666667 42.6666666666667C170.6666666666667 -4.3946666666667 208.9386666666667 -42.6666666666666 256 -42.6666666666666L541.1666773333333 -42.6666666666666C528.537344 -16.1279999999999 519.7259946666666 12.5013333333334 515.4166613333333 42.6666666666667L256 42.6666666666667L256 725.3333333333334L554.6666666666666 725.3333333333334L554.6666666666666 512L768 512L768 380.6666666666668C781.952 382.6720000000001 796.16 384.0833280000001 810.6666666666666 384.0833280000001C825.1733333333333 384.0833280000001 839.3813333333333 382.6720000000001 853.3333333333333 380.6666666666668L853.3333333333333 554.6666666666667L597.3333333333333 810.6666666666666L256 810.6666666666666zM770.7499946666667 298.6666666666668C765.2459946666665 298.6666666666668 760.64 294.5446826666667 760 289.0833493333335L754.9999786666667 245.9166720000001C734.3493119999999 238.7486720000001 715.6706559999999 227.8280106666668 699.4999893333334 213.833344L659.4999893333334 231.1666773333334C654.4653226666667 233.3426773333333 648.6473386666667 231.3193386666667 645.916672 226.5833386666667L605.916672 157.4166613333334C603.1860053333332 152.6806613333333 604.438656 146.6186666666668 608.8333226666666 143.3333333333334L643.2500053333333 117.750016C641.2020053333333 107.2113493333334 640 96.4266666666667 640 85.3333333333334C640 74.24 641.2020053333333 63.4553173333334 643.2500053333333 52.9166506666668L608.8333226666666 27.3333333333334C604.438656 24.048 603.1433386666666 17.9860053333334 605.916672 13.2500053333333L645.916672 -55.9166719999999C648.6473386666667 -60.6953386666667 654.4653226666667 -62.5926826666666 659.4999893333334 -60.4166826666666L699.4999893333334 -43.1666773333333C715.6706559999999 -57.2040106666666 734.3493119999999 -68.0820053333333 754.9999786666667 -75.2500053333333L760 -118.4166826666666C760.64 -123.8780159999999 765.2459946666665 -128 770.7499946666667 -128L850.5833386666666 -128C856.0873386666667 -128 860.6933333333333 -123.8780159999999 861.3333333333333 -118.4166826666666L866.3333546666665 -75.2500053333333C886.9840213333333 -68.0820053333333 905.6626773333334 -57.1613439999999 921.8333439999998 -43.1666773333333L961.8333439999998 -60.5000106666666C966.8680106666666 -62.6760106666667 972.6859946666666 -60.6526719999999 975.4166613333334 -55.9166719999999L1015.4166613333334 13.2500053333333C1018.147328 18.0286720000001 1016.8946773333334 24.0906666666667 1012.5000106666666 27.3333333333334L978.083328 52.9166506666668C980.131328 63.4553173333334 981.3333333333331 74.24 981.3333333333331 85.3333333333334C981.3333333333331 96.4266666666667 980.131328 107.2113493333334 978.083328 117.750016L1012.5000106666666 143.3333333333334C1016.8946773333334 146.6186666666668 1018.1899946666668 152.6806613333333 1015.4166613333334 157.4166613333334L975.4166613333334 226.5833386666667C972.6859946666666 231.3193386666667 966.8680106666666 233.3426773333333 961.8333439999998 231.1666773333334L921.8333439999998 213.833344C905.6626773333334 227.8280106666668 886.9840213333333 238.7486720000001 866.3333546666665 245.9166720000001L861.3333333333333 289.0833493333335C860.6933333333333 294.5446826666667 856.0873386666667 298.6666666666668 850.5833386666666 298.6666666666668L770.7499946666667 298.6666666666668zM810.6666666666666 170.6666666666668C857.7706666666666 170.6666666666668 896 132.48 896 85.3333333333334C896 38.2293333333334 857.7706666666666 0 810.6666666666666 0C763.5626666666667 0 725.3333333333333 38.2293333333334 725.3333333333333 85.3333333333334C725.3333333333333 132.48 763.5626666666667 170.6666666666668 810.6666666666666 170.6666666666668z" />
    <glyph glyph-name="admin-settings-male"
      unicode="&#xF127;"
      horiz-adv-x="1024" d="M512 768C418.2487722666666 768 341.3333333333333 691.0845610666667 341.3333333333333 597.3333333333334C341.3333333333333 503.5821056 418.2487722666666 426.6666666666667 512 426.6666666666667C605.7512106666666 426.6666666666667 682.6666666666666 503.5821056 682.6666666666666 597.3333333333334C682.6666666666666 691.0845610666667 605.7512106666666 768 512 768zM512 682.6666666666667C559.633664 682.6666666666667 597.3333333333333 644.9670016 597.3333333333333 597.3333333333334C597.3333333333333 549.6996650666667 559.633664 512 512 512C464.3663359999999 512 426.6666666666667 549.6996650666667 426.6666666666667 597.3333333333334C426.6666666666667 644.9670016 464.3663359999999 682.6666666666667 512 682.6666666666667zM512 298.6666666666668C377.984 298.6666666666668 128 232.7466666666667 128 106.6666666666667L128 0L524.5833386666666 0C516.5193386666666 27.0506666666668 512 55.6800000000001 512 85.3333333333334L213.3333333333333 85.3333333333334L213.3333333333333 106.6666666666667C213.3333333333333 143.744 371.5413333333334 213.3333333333334 512 213.3333333333334C521.472 213.3333333333334 531.0666666666666 212.9306453333334 540.6666666666666 212.3333120000001C554.576 241.8160213333333 573.0186666666666 268.7466666666667 595.3333333333333 292C565.1253333333333 296.4373333333333 536.6186666666666 298.6666666666668 512 298.6666666666668zM770.7499946666667 298.6666666666668C765.2459946666665 298.6666666666668 760.64 294.5446826666667 760 289.0833493333335L754.9999786666667 245.9166720000001C734.3493119999999 238.7486720000001 715.7133226666666 227.8706773333334 699.4999893333334 213.833344L659.4999893333334 231.1666773333334C654.4653226666667 233.3426773333333 648.6473386666667 231.3620053333334 645.916672 226.5833386666667L605.916672 157.4166613333334C603.1860053333332 152.6379946666666 604.438656 146.576 608.8333226666666 143.3333333333334L643.2500053333333 117.833344C641.244672 107.2520106666666 640 96.4266666666667 640 85.3333333333334C640 74.24 641.2020053333333 63.4553173333334 643.2500053333333 52.9166506666668L608.9166506666666 27.3333333333334C604.521984 24.048 603.2266666666667 17.9860053333334 606 13.2500053333333L645.916672 -55.9166719999999C648.6473386666667 -60.6953386666667 654.5486506666666 -62.5926826666666 659.5833173333333 -60.4166826666666L699.4999893333334 -43.1666773333333C715.6706559999999 -57.1613439999999 734.3493546666666 -68.0820053333333 754.9999786666667 -75.2500053333333L760 -118.4166826666666C760.5973333333333 -123.9206826666666 765.2459946666665 -128 770.7499946666667 -128L850.5833386666666 -128C856.0873386666667 -128 860.6933333333333 -123.8780159999999 861.3333333333333 -118.4166826666666L866.3333546666665 -75.2500053333333C886.9840213333333 -68.0820053333333 905.6200106666666 -57.2040106666666 921.8333439999998 -43.1666773333333L961.8333439999998 -60.5000106666666C966.8680106666666 -62.6760106666667 972.6859946666666 -60.6526719999999 975.4166613333334 -55.9166719999999L1015.4166613333334 13.2500053333333C1018.147328 18.0286720000001 1016.8946773333334 24.0906666666667 1012.5000106666666 27.3333333333334L978.083328 52.9166506666668C980.131328 63.4553173333334 981.3333333333331 74.24 981.3333333333331 85.3333333333334C981.3333333333331 96.4266666666667 980.131328 107.2113493333334 978.083328 117.750016L1012.4166826666666 143.3333333333334C1016.8113493333332 146.6186666666668 1018.1066666666666 152.6806613333333 1015.3333333333331 157.4166613333334L975.4166613333334 226.5833386666667C972.6859946666666 231.3620053333334 966.7846826666666 233.2593493333334 961.750016 231.0833493333335L921.8333439999998 213.833344C905.6626773333334 227.8280106666668 886.9840213333333 238.7486720000001 866.3333546666665 245.9166720000001L861.3333333333333 289.0833493333335C860.736 294.5873493333334 856.0873386666667 298.6666666666668 850.5833386666666 298.6666666666668L770.7499946666667 298.6666666666668zM810.6666666666666 160C851.8826666666666 160 885.3333333333333 126.592 885.3333333333333 85.3333333333334C885.3333333333333 44.1173333333334 851.8826666666666 10.6666666666667 810.6666666666666 10.6666666666667C769.4506666666666 10.6666666666667 736 44.1173333333334 736 85.3333333333334C736 126.592 769.4506666666666 160 810.6666666666666 160z" />
    <glyph glyph-name="connected-people"
      unicode="&#xF128;"
      horiz-adv-x="1024" d="M234.6666666666667 810.6666666666666C152.32 810.6666666666666 85.3333333333333 743.6800000000001 85.3333333333333 661.3333333333334C85.3333333333333 609.6267989333334 111.7922730666667 563.9798656 151.8333354666667 537.1666688C88.6120234666667 510.1032661333334 42.6666666666667 453.5666773333334 42.6666666666667 384L128 384C128 427.799168 171.9544874666667 469.3333333333334 234.6666666666667 469.3333333333334C297.3788458666667 469.3333333333334 341.3333333333333 427.799168 341.3333333333333 384L426.6666666666667 384C426.6666666666667 453.5666773333334 380.7213098666667 510.1032661333334 317.4999978666667 537.1666688C357.5410602666667 563.9798656 384 609.6267989333334 384 661.3333333333334C384 743.6800000000001 317.0133333333333 810.6666666666666 234.6666666666667 810.6666666666666zM512 810.6666666666666L512 725.3333333333334C672.4724906666667 725.3333333333334 806.3803306666666 615.0397312 843.2500053333333 466.5000106666666L926.083328 487.0833322666667C879.9236693333334 673.0502570666667 711.634176 810.6666666666666 512 810.6666666666666zM234.6666666666667 725.3333333333334C269.952 725.3333333333334 298.6666666666667 696.6186666666667 298.6666666666667 661.3333333333334C298.6666666666667 626.048 269.952 597.3333333333334 234.6666666666667 597.3333333333334C199.3813333333333 597.3333333333334 170.6666666666667 626.048 170.6666666666667 661.3333333333334C170.6666666666667 696.6186666666667 199.3813333333333 725.3333333333334 234.6666666666667 725.3333333333334zM789.3333333333333 384C706.9866666666667 384 640 317.0133333333333 640 234.6666666666668C640 182.9601280000001 666.4589226666667 137.3131946666667 706.5000106666666 110.5000106666666C643.2786773333332 83.4365866666667 597.3333333333333 26.9000106666667 597.3333333333333 -42.6666666666666L682.6666666666666 -42.6666666666666C682.6666666666666 1.1325013333334 726.6211413333333 42.6666666666667 789.3333333333333 42.6666666666667C852.0455253333332 42.6666666666667 896 1.1325013333334 896 -42.6666666666666L981.3333333333331 -42.6666666666666C981.3333333333331 26.9000106666667 935.3879893333332 83.4365866666667 872.166656 110.5000106666666C912.207744 137.3131946666667 938.6666666666666 182.9601280000001 938.6666666666666 234.6666666666668C938.6666666666666 317.0133333333333 871.68 384 789.3333333333333 384zM789.3333333333333 298.6666666666668C824.6186666666667 298.6666666666668 853.3333333333333 269.952 853.3333333333333 234.6666666666668C853.3333333333333 199.3813333333333 824.6186666666667 170.6666666666668 789.3333333333333 170.6666666666668C754.0479999999999 170.6666666666668 725.3333333333333 199.3813333333333 725.3333333333333 234.6666666666668C725.3333333333333 269.952 754.0479999999999 298.6666666666668 789.3333333333333 298.6666666666668zM186.2500010666667 281.5833173333333L104.9166677333333 256C159.3813162666667 82.7853226666666 321.4013141333333 -42.6666666666666 512 -42.6666666666666L512 42.6666666666667C358.7906858666667 42.6666666666667 229.7480149333333 143.2459946666667 186.2500010666667 281.5833173333333z" />
    <glyph glyph-name="security-pass"
      unicode="&#xF129;"
      horiz-adv-x="1024" d="M469.3333333333333 810.6666666666666L469.3333333333333 725.3333333333334L128 725.3333333333334C80.9386666666667 725.3333333333334 42.6666666666667 687.0613333333333 42.6666666666667 640L42.6666666666667 128C42.6666666666667 80.9386666666667 80.9386666666667 42.6666666666667 128 42.6666666666667L896 42.6666666666667C943.0613333333334 42.6666666666667 981.3333333333331 80.9386666666667 981.3333333333331 128L981.3333333333331 640C981.3333333333331 687.0613333333333 943.0613333333334 725.3333333333334 896 725.3333333333334L554.6666666666666 725.3333333333334L554.6666666666666 810.6666666666666L469.3333333333333 810.6666666666666zM128 640L896 640L896.0833279999999 128L128 128L128 640zM384 554.6666666666667A85.3333333333333 85.3333333333333 0 0 1 298.6666666666667 469.3333333333334A85.3333333333333 85.3333333333333 0 0 1 384 384A85.3333333333333 85.3333333333333 0 0 1 469.3333333333333 469.3333333333334A85.3333333333333 85.3333333333333 0 0 1 384 554.6666666666667zM640 512L640 426.6666666666667L810.6666666666666 426.6666666666667L810.6666666666666 512L640 512zM384 341.3333333333334C290.7733333333333 341.3333333333334 213.3333333333333 302.5579946666667 213.3333333333333 246.7499946666667L213.3333333333333 213.3333333333334L554.6666666666666 213.3333333333334L554.6666666666666 246.7499946666667C554.6666666666666 302.5579946666667 477.2266666666667 341.3333333333334 384 341.3333333333334zM640 341.3333333333334L640 256L810.6666666666666 256L810.6666666666666 341.3333333333334L640 341.3333333333334z" />
    <glyph glyph-name="group-task"
      unicode="&#xF12A;"
      horiz-adv-x="1024" d="M341.3333333333333 810.6666666666666C294.4 810.6666666666666 256 772.2666666666667 256 725.3333333333334L256 554.6666666666667C256 507.7333333333333 294.4 469.3333333333334 341.3333333333333 469.3333333333334L426.6666666666667 469.3333333333334L512 341.3333333333334L597.3333333333333 469.3333333333334L682.6666666666666 469.3333333333334C729.6 469.3333333333334 768 507.7333333333333 768 554.6666666666667L768 725.3333333333334C768 772.2666666666667 729.6 810.6666666666666 682.6666666666666 810.6666666666666L341.3333333333333 810.6666666666666zM341.3333333333333 725.3333333333334L682.6666666666666 725.3333333333334L682.6666666666666 554.6666666666667L597.3333333333333 554.6666666666667L551.666688 554.6666666666667L526.3333546666667 516.6666666666667L512 495.1666688L497.6666453333333 516.6666666666667L472.333312 554.6666666666667L426.6666666666667 554.6666666666667L341.3333333333333 554.6666666666667L341.3333333333333 725.3333333333334zM298.6666666666667 341.3333333333334A85.3333333333333 85.3333333333333 0 0 1 213.3333333333333 256A85.3333333333333 85.3333333333333 0 0 1 298.6666666666667 170.6666666666668A85.3333333333333 85.3333333333333 0 0 1 384 256A85.3333333333333 85.3333333333333 0 0 1 298.6666666666667 341.3333333333334zM725.3333333333333 341.3333333333334A85.3333333333333 85.3333333333333 0 0 1 640 256A85.3333333333333 85.3333333333333 0 0 1 725.3333333333333 170.6666666666668A85.3333333333333 85.3333333333333 0 0 1 810.6666666666666 256A85.3333333333333 85.3333333333333 0 0 1 725.3333333333333 341.3333333333334zM298.6666666666667 128C205.44 128 128 89.2246613333334 128 33.4166613333334L128 -42.6666666666666L469.3333333333333 -42.6666666666666L469.3333333333333 33.4166613333334C469.3333333333333 89.2246613333334 391.8933333333333 128 298.6666666666667 128zM725.3333333333333 128C632.1066666666666 128 554.6666666666666 89.2246613333334 554.6666666666666 33.4166613333334L554.6666666666666 -42.6666666666666L896 -42.6666666666666L896 33.4166613333334C896 89.2246613333334 818.56 128 725.3333333333333 128z" />
    <glyph glyph-name="slider"
      unicode="&#xF12B;"
      horiz-adv-x="1024" d="M426.6666666666667 810.6666666666666C371.4918997333333 810.6666666666666 324.4739712 774.7127466666667 306.6666666666667 725.3333333333334L85.3333333333333 725.3333333333334L85.3333333333333 640L306.6666666666667 640C324.4739712 590.6205866666667 371.4918997333333 554.6666666666667 426.6666666666667 554.6666666666667C496.85376 554.6666666666667 554.6666666666666 612.4795904 554.6666666666666 682.6666666666667C554.6666666666666 752.8537429333334 496.85376 810.6666666666666 426.6666666666667 810.6666666666666zM426.6666666666667 725.3333333333334C450.7361706666666 725.3333333333334 469.3333333333333 706.7361877333333 469.3333333333333 682.6666666666667C469.3333333333333 658.5971456 450.7361706666666 640 426.6666666666667 640C402.5971456 640 384 658.5971456 384 682.6666666666667C384 706.7361877333333 402.5971456 725.3333333333334 426.6666666666667 725.3333333333334zM640 725.3333333333334L640 640L938.6666666666666 640L938.6666666666666 725.3333333333334L640 725.3333333333334zM640 512C584.825216 512 537.8073173333332 476.0460842666666 520 426.6666666666667L85.3333333333333 426.6666666666667L85.3333333333333 341.3333333333334L520 341.3333333333334C537.8073173333332 291.9539200000001 584.825216 256 640 256C710.1870933333332 256 768 313.8129066666668 768 384C768 454.1870933333333 710.1870933333332 512 640 512zM640 426.6666666666667C664.0695039999999 426.6666666666667 682.6666666666666 408.069504 682.6666666666666 384C682.6666666666666 359.9304960000001 664.0695039999999 341.3333333333334 640 341.3333333333334C615.930496 341.3333333333334 597.3333333333333 359.9304960000001 597.3333333333333 384C597.3333333333333 408.069504 615.930496 426.6666666666667 640 426.6666666666667zM853.3333333333333 426.6666666666667L853.3333333333333 341.3333333333334L938.6666666666666 341.3333333333334L938.6666666666666 426.6666666666667L853.3333333333333 426.6666666666667zM298.6666666666667 213.3333333333334C243.4918997333334 213.3333333333334 196.4739712 177.3794133333335 178.6666666666667 128L85.3333333333333 128L85.3333333333333 42.6666666666667L178.6666666666667 42.6666666666667C196.4739712 -6.7127466666667 243.4918997333334 -42.6666666666666 298.6666666666667 -42.6666666666666C368.8537429333333 -42.6666666666666 426.6666666666667 15.14624 426.6666666666667 85.3333333333334C426.6666666666667 155.5204266666667 368.8537429333333 213.3333333333334 298.6666666666667 213.3333333333334zM298.6666666666667 128C322.7361877333333 128 341.3333333333333 109.4028373333334 341.3333333333333 85.3333333333334C341.3333333333333 61.2638293333333 322.7361877333333 42.6666666666667 298.6666666666667 42.6666666666667C274.5971456 42.6666666666667 256 61.2638293333333 256 85.3333333333334C256 109.4028373333334 274.5971456 128 298.6666666666667 128zM512 128L512 42.6666666666667L938.6666666666666 42.6666666666667L938.6666666666666 128L512 128z" />
    <glyph glyph-name="up"
      unicode="&#xF12C;"
      horiz-adv-x="1024" d="M512 771L210.3333333333333 469.3333333333334L274.3333333333333 405.3333333333334L469.3333333333333 600.3333333333334L469.3333333333333 0L554.6666666666666 0L554.6666666666666 600.3333333333334L749.6666453333333 405.3333333333334L813.6666453333333 469.3333333333334L512 771z" />
    <glyph glyph-name="place-marker"
      unicode="&#xF12D;"
      horiz-adv-x="1024" d="M512 853.3333333333334C370.6026666666667 853.3333333333334 256 738.7306666666667 256 597.3333333333334C256 414.4640000000001 512 128 512 128C512 128 768 414.4640000000001 768 597.3333333333334C768 738.7306666666667 653.3973333333333 853.3333333333334 512 853.3333333333334zM512 768C606.1226666666666 768 682.6666666666666 691.456 682.6666666666666 597.3333333333334C682.6666666666666 511.5733333333334 593.8793386666666 368.624 511.9166719999999 262C429.9540053333334 368.4533333333334 341.3333333333333 511.3173333333334 341.3333333333333 597.3333333333334C341.3333333333333 691.456 417.8773333333334 768 512 768zM512 682.6666666666667A85.3333333333333 85.3333333333333 0 0 1 426.6666666666667 597.3333333333334A85.3333333333333 85.3333333333333 0 0 1 512 512A85.3333333333333 85.3333333333333 0 0 1 597.3333333333333 597.3333333333334A85.3333333333333 85.3333333333333 0 0 1 512 682.6666666666667zM319.1666688 237.4166613333334C180.5426645333333 209.2566613333334 85.3333333333333 151.808 85.3333333333333 85.3333333333334C85.3333333333333 -8.9173333333333 276.352 -85.3333333333333 512 -85.3333333333333C747.6479999999999 -85.3333333333333 938.6666666666666 -8.9173333333333 938.6666666666666 85.3333333333334C938.6666666666666 151.808 843.4573226666666 209.2139946666666 704.8333226666666 237.4166613333334C685.5479893333332 209.2139946666666 666.6580053333332 183.3633280000002 649.2500053333333 160.7499946666667C765.8153386666665 143.0859946666667 834.825344 106.1526613333334 851.1666773333333 85.4166613333334C829.1933439999999 57.5126613333334 712.3606613333333 0.0833280000001 512.0833279999999 0.0833280000001L512 -0.0833279999999L511.9166719999999 0C311.6393344 0 194.8493354666667 57.3866666666667 172.8333312 85.3333333333334C189.1746688 106.112 258.1419989333333 143.1286613333334 374.7499989333333 160.7499946666667C357.3419989333334 183.4059946666666 338.4520021333333 209.2566613333334 319.1666688 237.4166613333334z" />
    <glyph glyph-name="marker"
      unicode="&#xF12E;"
      horiz-adv-x="1024" d="M512 810.2500010666666C347.4773333333333 810.2500010666666 213.6666666666667 676.3559978666667 213.6666666666667 511.8333354666667C213.6666666666667 320.5586773333335 468.2460159999999 9.8486613333333 479.0833493333333 -3.2500053333333L512 -43.1666773333333L544.9166506666666 -3.2500053333333C555.753984 9.891328 810.3333546666665 320.5586773333335 810.3333546666665 511.8333354666667C810.333312 676.3986688 676.5226666666666 810.2500010666666 512 810.2500010666666zM512 724.9166677333334C629.4613333333333 724.9166677333334 725.0000213333333 629.2946688 725.0000213333333 511.8333354666667C724.9999786666667 396.4200106666667 592.1279999999999 197.9233280000001 512 92.7499946666667C431.872 197.8379946666668 299 396.249344 299 511.8333354666667C299 629.2946688 394.5386666666667 724.9166677333334 512 724.9166677333334zM512 618.6666666666667C453.0773333333333 618.6666666666667 405.3333333333333 570.9226666666667 405.3333333333333 512C405.3333333333333 453.0773333333333 453.0773333333333 405.3333333333334 512 405.3333333333334C570.9226666666666 405.3333333333334 618.6666666666666 453.0773333333333 618.6666666666666 512C618.6666666666666 570.9226666666667 570.9226666666666 618.6666666666667 512 618.6666666666667z" />
    <glyph glyph-name="navigation"
      unicode="&#xF12F;"
      horiz-adv-x="1024" d="M512 810.6666666666666C276.8638762666667 810.6666666666666 85.3333333333333 619.1361237333333 85.3333333333333 384C85.3333333333333 148.8638720000001 276.8638762666667 -42.6666666666666 512 -42.6666666666666C747.1361279999999 -42.6666666666666 938.6666666666666 148.8638720000001 938.6666666666666 384C938.6666666666666 619.1361237333333 747.1361279999999 810.6666666666666 512 810.6666666666666zM512 725.3333333333334C701.0185813333333 725.3333333333334 853.3333333333333 573.0185642666667 853.3333333333333 384C853.3333333333333 194.9814186666668 701.0185813333333 42.6666666666667 512 42.6666666666667C322.9814357333334 42.6666666666667 170.6666666666667 194.9814186666668 170.6666666666667 384C170.6666666666667 573.0185642666667 322.9814357333334 725.3333333333334 512 725.3333333333334zM682.6666666666666 554.6666666666667L256 400.9166506666667L427.2500053333333 299.2500053333333L528.9166506666666 128L682.6666666666666 554.6666666666667zM540.8333226666666 412.8333226666668L509.9166719999999 327.1666773333334L500.6666666666666 342.7499946666667L489.5833173333333 361.4999893333334L470.8333226666667 372.5833386666667L455.1666773333333 381.9166720000001L540.8333226666666 412.8333226666668z" />
    <glyph glyph-name="highway-sign"
      unicode="&#xF130;"
      horiz-adv-x="1024" d="M510.4166826666667 810.6666666666666A42.6709333333333 42.6709333333333 0 0 1 492.9166506666666 806.1666645333333C492.9166506666666 806.1666645333333 327.1111125333333 725.3333333333334 170.6666666666667 725.3333333333334A42.6709333333333 42.6709333333333 0 0 1 128 682.6666666666667L128 469.3333333333334C128 99.5555413333334 497.0000213333333 -39.9166719999999 497.0000213333333 -39.9166719999999A42.6709333333333 42.6709333333333 0 0 1 526.9999786666666 -39.9166719999999C526.9999786666666 -39.9166719999999 896 99.5555413333334 896 469.3333333333334L896 682.6666666666667A42.6709333333333 42.6709333333333 0 0 1 853.3333333333333 725.3333333333334C696.8888746666667 725.3333333333334 531.0833493333333 806.1666645333333 531.0833493333333 806.1666645333333A42.6709333333333 42.6709333333333 0 0 1 510.4166826666667 810.6666666666666zM512 722.0833322666667C536.1856853333334 710.2894634666667 658.4843093333333 655.3769514666667 810.6666666666666 644.4166656L810.6666666666666 554.6666666666667L213.3333333333333 554.6666666666667L213.3333333333333 644.4166656C365.5156736 655.3769514666667 487.8143146666666 710.2894634666667 512 722.0833322666667zM213.3333333333333 469.3333333333334L810.6666666666666 469.3333333333334C810.6666666666666 180.4004693333334 552.955392 63.90528 512 46.9999786666667C471.044608 63.90528 213.3333333333333 180.4004693333334 213.3333333333333 469.3333333333334z" />
    <glyph glyph-name="near-me"
      unicode="&#xF131;"
      horiz-adv-x="1024" d="M128 469.3333333333334V426.6666666666667L426.6666666666667 298.6666666666668L554.6666666666666 0H597.3333333333333L896 768L128 469.3333333333334zM573.184 173.3973333333333L491.648 363.6906666666668L301.3546666666666 445.2266666666667L746.1546666666666 618.1973333333334L573.184 173.3973333333333z" />
    <glyph glyph-name="flag-2"
      unicode="&#xF132;"
      horiz-adv-x="1024" d="M128 768L128 725.3333333333334L128 298.6666666666668L128 0L213.3333333333333 0L213.3333333333333 298.6666666666668L528.333312 298.6666666666668L570.9999786666666 213.3333333333334L896 213.3333333333334L896 682.6666666666667L623.666688 682.6666666666667L581.0000213333333 768L128 768zM213.3333333333333 682.6666666666667L528.333312 682.6666666666667L570.9999786666666 597.3333333333334L597.3333333333333 597.3333333333334L810.6666666666666 597.3333333333334L810.6666666666666 298.6666666666668L623.666688 298.6666666666668L581.0000213333333 384L213.3333333333333 384L213.3333333333333 682.6666666666667z" />
    <glyph glyph-name="globe"
      unicode="&#xF133;"
      horiz-adv-x="1024" d="M512 810.6666666666666C276.8638762666667 810.6666666666666 85.3333333333333 619.1361237333333 85.3333333333333 384C85.3333333333333 148.8638720000001 276.8638762666667 -42.6666666666666 512 -42.6666666666666C747.1361279999999 -42.6666666666666 938.6666666666666 148.8638720000001 938.6666666666666 384C938.6666666666666 619.1361237333333 747.1361279999999 810.6666666666666 512 810.6666666666666zM512 725.3333333333334C522.5935786666666 725.3333333333334 534.2047573333333 720.9968213333334 549.0000213333333 706.9166677333334C563.7952 692.8365098666667 579.8600106666667 669.2316885333333 593.6666453333332 638.1666645333333C604.1769386666666 614.5185706666666 612.7750826666667 585.6564181333333 620.166656 554.6666666666667L403.8333354666667 554.6666666666667C411.2249130666667 585.6564181333333 419.8230613333334 614.5185706666666 430.3333546666667 638.1666645333333C444.1399466666667 669.2316885333333 460.2048426666667 692.8365098666667 474.9999786666666 706.9166677333334C489.7952426666666 720.9968213333334 501.4064213333334 725.3333333333334 512 725.3333333333334zM360.5833344 689.7499989333334C357.8043264000001 684.1647701333334 354.9372757333333 678.6922026666666 352.3333333333333 672.8333312C336.9001088 638.1085866666667 324.9209856 597.9217792 315.9166677333334 554.6666666666667L216.4166656 554.6666666666667C249.9714474666667 612.8138496 300.1547989333333 659.8672128000001 360.5833344 689.7499989333334zM663.4166613333333 689.7499989333334C723.8452053333333 659.8672128000001 774.0285439999999 612.8138496 807.5833173333333 554.6666666666667L708.0833279999999 554.6666666666667C699.0790399999998 597.9217792 687.0999039999999 638.1085866666667 671.666688 672.8333312C669.0627413333333 678.6922026666666 666.1956693333333 684.1647701333334 663.4166613333333 689.7499989333334zM181.8333354666667 469.3333333333334L302.8333312 469.3333333333334C300.2141184 441.7330773333333 298.6666666666667 413.2850346666667 298.6666666666667 384C298.6666666666667 354.7149653333334 300.2141184 326.2669226666667 302.8333312 298.6666666666668L181.8333354666667 298.6666666666668C174.8289749333333 325.9823786666667 170.6666666666667 354.448128 170.6666666666667 384C170.6666666666667 413.551872 174.8289749333333 442.0176213333334 181.8333354666667 469.3333333333334zM389 469.3333333333334L634.9999786666666 469.3333333333334C637.9700906666667 441.9162026666667 640 413.5840426666668 640 384C640 354.4159573333334 637.9700906666667 326.0837973333334 634.9999786666666 298.6666666666668L389 298.6666666666668C386.0299008 326.0837973333334 384 354.4159573333334 384 384C384 413.5840426666668 386.0299008 441.9162026666667 389 469.3333333333334zM721.1666773333333 469.3333333333334L842.166656 469.3333333333334C849.1710293333333 442.0176213333334 853.3333333333333 413.551872 853.3333333333333 384C853.3333333333333 354.448128 849.1710293333333 325.9823786666667 842.166656 298.6666666666668L721.1666773333333 298.6666666666668C723.7858986666666 326.2669226666667 725.3333333333333 354.7149653333334 725.3333333333333 384C725.3333333333333 413.2850346666667 723.7858986666666 441.7330773333333 721.1666773333333 469.3333333333334zM216.4166656 213.3333333333334L315.9166677333334 213.3333333333334C324.9209856 170.0782080000001 336.9001088 129.8914133333333 352.3333333333333 95.1666773333334C354.9372757333333 89.3078186666667 357.8043264000001 83.8352213333333 360.5833344 78.249984C300.1547989333333 108.1327786666668 249.9714474666667 155.1861333333334 216.4166656 213.3333333333334zM403.8333354666667 213.3333333333334L620.166656 213.3333333333334C612.7750826666667 182.3435946666667 604.1769386666666 153.4814293333334 593.6666453333332 129.833344C579.8600106666667 98.7682986666667 563.7951573333332 75.1634773333334 549.0000213333333 61.0833493333333C534.2048 47.0031786666667 522.5935786666666 42.6666666666667 512 42.6666666666667C501.4064213333334 42.6666666666667 489.7952426666666 47.0031786666667 474.9999786666666 61.0833493333333C460.2048 75.1634773333334 444.1399466666667 98.7682986666667 430.3333546666667 129.833344C419.8230613333334 153.4814293333334 411.2249130666667 182.3435946666667 403.8333354666667 213.3333333333334zM708.0833279999999 213.3333333333334L807.5833173333333 213.3333333333334C774.0285439999999 155.1861333333334 723.8452053333333 108.1327786666668 663.4166613333333 78.249984C666.1956693333333 83.8352213333333 669.0627413333333 89.3078186666667 671.666688 95.1666773333334C687.0999039999999 129.8914133333333 699.0790399999998 170.0782080000001 708.0833279999999 213.3333333333334z" />
    <glyph glyph-name="signpost-tourist"
      unicode="&#xF134;"
      horiz-adv-x="1024" d="M469.3333333333333 810.6666666666666L469.3333333333333 725.3333333333334L128 725.3333333333334L128 469.3333333333334L469.3333333333333 469.3333333333334L469.3333333333333 384L213.3333333333333 384L85.3333333333333 256L213.3333333333333 128L469.3333333333333 128L469.3333333333333 -42.6666666666666L554.6666666666666 -42.6666666666666L554.6666666666666 128L896 128L896 384L554.6666666666666 384L554.6666666666666 469.3333333333334L810.6666666666666 469.3333333333334L938.6666666666666 597.3333333333334L810.6666666666666 725.3333333333334L554.6666666666666 725.3333333333334L554.6666666666666 810.6666666666666L469.3333333333333 810.6666666666666zM213.3333333333333 640L775.3333333333333 640L818 597.3333333333334L775.3333333333333 554.6666666666667L213.3333333333333 554.6666666666667L213.3333333333333 640zM248.6666666666667 298.6666666666668L810.6666666666666 298.6666666666668L810.6666666666666 213.3333333333334L248.6666666666667 213.3333333333334L206 256L248.6666666666667 298.6666666666668z" />
    <glyph glyph-name="web-design"
      unicode="&#xF135;"
      horiz-adv-x="1024" d="M213.3333333333333 768C166.6959872 768 128 729.3040128 128 682.6666666666667L128 85.3333333333334C128 38.6959786666666 166.6959872 0 213.3333333333333 0L810.6666666666666 0C857.3040213333334 0 896 38.6959786666666 896 85.3333333333334L896 682.6666666666667C896 729.3040128 857.3040213333334 768 810.6666666666666 768L213.3333333333333 768zM213.3333333333333 682.6666666666667L810.6666666666666 682.6666666666667L810.6666666666666 512L213.3333333333333 512L213.3333333333333 682.6666666666667zM298.6666666666667 640A42.6666666666667 42.6666666666667 0 0 1 256 597.3333333333334A42.6666666666667 42.6666666666667 0 0 1 298.6666666666667 554.6666666666667A42.6666666666667 42.6666666666667 0 0 1 341.3333333333333 597.3333333333334A42.6666666666667 42.6666666666667 0 0 1 298.6666666666667 640zM426.6666666666667 640A42.6666666666667 42.6666666666667 0 0 1 384 597.3333333333334A42.6666666666667 42.6666666666667 0 0 1 426.6666666666667 554.6666666666667A42.6666666666667 42.6666666666667 0 0 1 469.3333333333333 597.3333333333334A42.6666666666667 42.6666666666667 0 0 1 426.6666666666667 640zM554.6666666666666 640L554.6666666666666 554.6666666666667L725.3333333333333 554.6666666666667L725.3333333333333 640L554.6666666666666 640zM213.3333333333333 426.6666666666667L341.3333333333333 426.6666666666667L341.3333333333333 85.3333333333334L213.3333333333333 85.3333333333334L213.3333333333333 426.6666666666667zM426.6666666666667 426.6666666666667L810.6666666666666 426.6666666666667L810.6666666666666 85.3333333333334L426.6666666666667 85.3333333333334L426.6666666666667 426.6666666666667zM512 384L512 298.6666666666668L725.3333333333333 298.6666666666668L725.3333333333333 384L512 384zM512 256L512 170.6666666666668L725.3333333333333 170.6666666666668L725.3333333333333 256L512 256z" />
    <glyph glyph-name="goal"
      unicode="&#xF136;"
      horiz-adv-x="1024" d="M512 810.6666666666666C276.352 810.6666666666666 85.3333333333333 619.648 85.3333333333333 384C85.3333333333333 148.3520000000001 276.352 -42.6666666666666 512 -42.6666666666666C747.6479999999999 -42.6666666666666 938.6666666666666 148.3520000000001 938.6666666666666 384C938.6666666666666 455.9786666666666 920.6546773333332 523.7726677333334 889.1666773333333 583.2500010666668L825.3333333333333 519.3333333333334C843.2959999999999 477.8186666666667 853.3333333333333 432.1280000000001 853.3333333333333 384C853.3333333333333 195.4986666666667 700.5013333333333 42.6666666666667 512 42.6666666666667C323.4986666666666 42.6666666666667 170.6666666666667 195.4986666666667 170.6666666666667 384C170.6666666666667 572.5013333333334 323.4986666666666 725.3333333333334 512 725.3333333333334C590.85248 725.3333333333334 663.1749546666666 698.2214058666667 720.9166506666667 653.2500010666668L660 592.3333333333334C618.2183679999999 622.1837056 567.299968 640 512 640C370.6026666666667 640 256 525.3973333333333 256 384C256 242.6026666666667 370.6026666666667 128 512 128C653.3973333333333 128 768 242.6026666666667 768 384C768 407.7653333333334 764.4753493333333 430.6973440000001 758.4166826666666 452.5000106666666L681.8333439999999 375.9166720000001C677.481344 285.5060053333334 603.4773333333333 213.3333333333334 512 213.3333333333334C417.7493333333333 213.3333333333334 341.3333333333333 289.7493333333334 341.3333333333333 384C341.3333333333333 478.2506666666667 417.7493333333333 554.6666666666667 512 554.6666666666667C543.665152 554.6666666666667 573.1317333333333 545.8530517333334 598.4166826666667 530.7499989333334L534 466.3333546666667A85.3333333333333 85.3333333333333 0 0 1 512 469.3333333333334A85.3333333333333 85.3333333333333 0 0 1 426.6666666666667 384A85.3333333333333 85.3333333333333 0 0 1 512 298.6666666666668A85.3333333333333 85.3333333333333 0 0 1 597.3333333333333 384A85.3333333333333 85.3333333333333 0 0 1 594.4166826666667 406.0833280000001L938.6666666666666 750.3333333333334L878.3333546666665 810.6666666666666L781.750016 714.0833322666667C708.1869653333333 774.261184 614.4363093333333 810.6666666666666 512 810.6666666666666z" />
    <glyph glyph-name="tune"
      unicode="&#xF137;"
      horiz-adv-x="1024" d="M426.6666666666667 810.6666666666666C403.1146666666667 810.6666666666666 384 791.552 384 768L384 725.3333333333334L85.3333333333333 725.3333333333334L85.3333333333333 640L384 640L384 597.3333333333334C384 573.7813333333334 403.1146666666667 554.6666666666667 426.6666666666667 554.6666666666667L469.3333333333333 554.6666666666667C492.8853333333333 554.6666666666667 512 573.7813333333334 512 597.3333333333334L512 768C512 791.552 492.8853333333333 810.6666666666666 469.3333333333333 810.6666666666666L426.6666666666667 810.6666666666666zM597.3333333333333 725.3333333333334L597.3333333333333 640L938.6666666666666 640L938.6666666666666 725.3333333333334L597.3333333333333 725.3333333333334zM640 512C616.448 512 597.3333333333333 492.8853333333333 597.3333333333333 469.3333333333334L597.3333333333333 426.6666666666667L85.3333333333333 426.6666666666667L85.3333333333333 341.3333333333334L597.3333333333333 341.3333333333334L597.3333333333333 298.6666666666668C597.3333333333333 275.1146666666667 616.448 256 640 256L682.6666666666666 256C706.2186666666666 256 725.3333333333333 275.1146666666667 725.3333333333333 298.6666666666668L725.3333333333333 469.3333333333334C725.3333333333333 492.8853333333333 706.2186666666666 512 682.6666666666666 512L640 512zM810.6666666666666 426.6666666666667L810.6666666666666 341.3333333333334L938.6666666666666 341.3333333333334L938.6666666666666 426.6666666666667L810.6666666666666 426.6666666666667zM213.3333333333333 213.3333333333334C189.7813333333334 213.3333333333334 170.6666666666667 194.2186666666667 170.6666666666667 170.6666666666668L170.6666666666667 128L85.3333333333333 128L85.3333333333333 42.6666666666667L170.6666666666667 42.6666666666667L170.6666666666667 0C170.6666666666667 -23.5519999999999 189.7813333333334 -42.6666666666666 213.3333333333333 -42.6666666666666L256 -42.6666666666666C279.552 -42.6666666666666 298.6666666666667 -23.5519999999999 298.6666666666667 0L298.6666666666667 170.6666666666668C298.6666666666667 194.2186666666667 279.552 213.3333333333334 256 213.3333333333334L213.3333333333333 213.3333333333334zM384 128L384 42.6666666666667L938.6666666666666 42.6666666666667L938.6666666666666 128L384 128z" />
    <glyph glyph-name="no-connection"
      unicode="&#xF138;"
      horiz-adv-x="1024" d="M725.3333333333333 725.3333333333334L725.3333333333333 682.6666666666667L725.3333333333333 42.6666666666667L981.3333333333331 42.6666666666667L981.3333333333331 725.3333333333334L725.3333333333333 725.3333333333334zM810.6666666666666 640L896 640L896 128L810.6666666666666 128L810.6666666666666 640zM384 554.6666666666667L384 512L384 42.6666666666667L640 42.6666666666667L640 554.6666666666667L384 554.6666666666667zM469.3333333333333 469.3333333333334L554.6666666666666 469.3333333333334L554.6666666666666 128L469.3333333333333 128L469.3333333333333 469.3333333333334zM42.6666666666667 384L42.6666666666667 341.3333333333334L42.6666666666667 42.6666666666667L298.6666666666667 42.6666666666667L298.6666666666667 384L42.6666666666667 384zM128 298.6666666666668L213.3333333333333 298.6666666666668L213.3333333333333 128L128 128L128 298.6666666666668z" />
    <glyph glyph-name="stacked-organizational-chart-highlighted-parent-node"
      unicode="&#xF139;"
      horiz-adv-x="1024" d="M128 810.6666666666666L128 554.6666666666667L256 554.6666666666667L256 128C256 81.3626453333334 294.6959872 42.6666666666667 341.3333333333333 42.6666666666667L554.6666666666666 42.6666666666667L554.6666666666666 -42.6666666666666L896 -42.6666666666666L896 213.3333333333334L554.6666666666666 213.3333333333334L554.6666666666666 170.6666666666668L554.6666666666666 128L341.3333333333333 128L341.3333333333333 384L554.6666666666666 384L554.6666666666666 298.6666666666668L896 298.6666666666668L896 554.6666666666667L554.6666666666666 554.6666666666667L554.6666666666666 512L554.6666666666666 469.3333333333334L341.3333333333333 469.3333333333334L341.3333333333333 554.6666666666667L469.3333333333333 554.6666666666667L469.3333333333333 810.6666666666666L128 810.6666666666666zM640 469.3333333333334L810.6666666666666 469.3333333333334L810.6666666666666 384L640 384L640 469.3333333333334zM640 128L810.6666666666666 128L810.6666666666666 42.6666666666667L640 42.6666666666667L640 128z" />
    <glyph glyph-name="low-importance"
      unicode="&#xF13A;"
      horiz-adv-x="1024" d="M512 810.6666666666666C276.8638762666667 810.6666666666666 85.3333333333333 619.1361237333333 85.3333333333333 384C85.3333333333333 148.8638720000001 276.8638762666667 -42.6666666666666 512 -42.6666666666666C747.1361279999999 -42.6666666666666 938.6666666666666 148.8638720000001 938.6666666666666 384C938.6666666666666 619.1361237333333 747.1361279999999 810.6666666666666 512 810.6666666666666zM512 725.3333333333334C701.0185813333333 725.3333333333334 853.3333333333333 573.0185642666667 853.3333333333333 384C853.3333333333333 194.9814186666668 701.0185813333333 42.6666666666667 512 42.6666666666667C322.9814357333334 42.6666666666667 170.6666666666667 194.9814186666668 170.6666666666667 384C170.6666666666667 573.0185642666667 322.9814357333334 725.3333333333334 512 725.3333333333334zM469.3333333333333 597.3333333333334L469.3333333333333 341.3333333333334L341.3333333333333 341.3333333333334L512 170.6666666666668L682.6666666666666 341.3333333333334L554.6666666666666 341.3333333333334L554.6666666666666 597.3333333333334L469.3333333333333 597.3333333333334z" />
    <glyph glyph-name="bookmark"
      unicode="&#xF13B;"
      horiz-adv-x="1024" d="M256.4166656 810.6666666666666C209.6772736 810.6666666666666 171.0833322666667 772.1557845333333 171.0833322666667 725.4166656L170.6666666666667 -42.6666666666666L512 85.3333333333334L853.3333333333333 -42.6666666666666L853.3333333333333 18.9166506666668L853.3333333333333 725.3333333333334C853.3333333333333 771.9706794666666 814.6373546666666 810.6666666666666 768 810.6666666666666L256.4166656 810.6666666666666zM256.4166656 725.3333333333334L768 725.3333333333334L768 80.5000106666666L512 176.5000106666667L256.0833322666666 80.5000106666666L256.4166656 725.3333333333334z" />
    <glyph glyph-name="plus"
      unicode="&#xF13C;"
      horiz-adv-x="1024" d="M512 810.6666666666666C276.8638762666667 810.6666666666666 85.3333333333333 619.1361237333333 85.3333333333333 384C85.3333333333333 148.8638720000001 276.8638762666667 -42.6666666666666 512 -42.6666666666666C747.1361279999999 -42.6666666666666 938.6666666666666 148.8638720000001 938.6666666666666 384C938.6666666666666 619.1361237333333 747.1361279999999 810.6666666666666 512 810.6666666666666zM512 725.3333333333334C701.0185813333333 725.3333333333334 853.3333333333333 573.0185642666667 853.3333333333333 384C853.3333333333333 194.9814186666668 701.0185813333333 42.6666666666667 512 42.6666666666667C322.9814357333334 42.6666666666667 170.6666666666667 194.9814186666668 170.6666666666667 384C170.6666666666667 573.0185642666667 322.9814357333334 725.3333333333334 512 725.3333333333334zM469.3333333333333 597.3333333333334L469.3333333333333 426.6666666666667L298.6666666666667 426.6666666666667L298.6666666666667 341.3333333333334L469.3333333333333 341.3333333333334L469.3333333333333 170.6666666666668L554.6666666666666 170.6666666666668L554.6666666666666 341.3333333333334L725.3333333333333 341.3333333333334L725.3333333333333 426.6666666666667L554.6666666666666 426.6666666666667L554.6666666666666 597.3333333333334L469.3333333333333 597.3333333333334z" />
    <glyph glyph-name="trash"
      unicode="&#xF13D;"
      horiz-adv-x="1024" d="M426.6666666666667 810.6666666666666L384 768L170.6666666666667 768L170.6666666666667 682.6666666666667L213.3333333333333 682.6666666666667L213.3333333333333 42.6666666666667C213.3333333333333 20.3851946666667 221.4966997333334 -2.3300266666666 237.5833344 -18.4166826666666C253.6699690666667 -34.503296 276.3851861333333 -42.6666666666666 298.6666666666667 -42.6666666666666L725.3333333333333 -42.6666666666666C747.6148053333333 -42.6666666666666 770.3300266666666 -34.503296 786.4166826666666 -18.4166826666666C802.503296 -2.3300266666666 810.6666666666666 20.3851946666667 810.6666666666666 42.6666666666667L810.6666666666666 682.6666666666667L853.3333333333333 682.6666666666667L853.3333333333333 768L640 768L597.3333333333333 810.6666666666666L426.6666666666667 810.6666666666666zM298.6666666666667 682.6666666666667L725.3333333333333 682.6666666666667L725.3333333333333 42.6666666666667L298.6666666666667 42.6666666666667L298.6666666666667 682.6666666666667zM384 597.3333333333334L384 128L469.3333333333333 128L469.3333333333333 597.3333333333334L384 597.3333333333334zM554.6666666666666 597.3333333333334L554.6666666666666 128L640 128L640 597.3333333333334L554.6666666666666 597.3333333333334z" />
    <glyph glyph-name="document"
      unicode="&#xF13E;"
      horiz-adv-x="1024" d="M256 810.6666666666666C209.3117994666667 810.6666666666666 170.6666666666667 772.0215338666667 170.6666666666667 725.3333333333334L170.6666666666667 42.6666666666667C170.6666666666667 -4.0215466666666 209.3117994666667 -42.6666666666666 256 -42.6666666666666L768 -42.6666666666666C814.6882133333334 -42.6666666666666 853.3333333333333 -4.0215466666666 853.3333333333333 42.6666666666667L853.3333333333333 554.6666666666667L597.3333333333333 810.6666666666666L256 810.6666666666666zM256 725.3333333333334L554.6666666666666 725.3333333333334L554.6666666666666 512L768 512L768 42.6666666666667L256 42.6666666666667L256 725.3333333333334zM341.3333333333333 384L341.3333333333333 298.6666666666668L682.6666666666666 298.6666666666668L682.6666666666666 384L341.3333333333333 384zM341.3333333333333 213.3333333333334L341.3333333333333 128L682.6666666666666 128L682.6666666666666 213.3333333333334L341.3333333333333 213.3333333333334z" />
    </font>
</defs>
</svg>
